<mxfile host="app.diagrams.net" agent="Mozilla/5.0 (Windows NT 10.0; Win64; x64) AppleWebKit/537.36 (KHTML, like Gecko) Chrome/135.0.0.0 Safari/537.36" version="26.2.13">
  <diagram id="C5RBs43oDa-KdzZeNtuy" name="Page-1">
    <mxGraphModel dx="2539" dy="1263" grid="0" gridSize="10" guides="1" tooltips="1" connect="1" arrows="1" fold="1" page="1" pageScale="1" pageWidth="2600" pageHeight="1169" math="0" shadow="0">
      <root>
        <mxCell id="WIyWlLk6GJQsqaUBKTNV-0" />
        <mxCell id="WIyWlLk6GJQsqaUBKTNV-1" parent="WIyWlLk6GJQsqaUBKTNV-0" />
        <mxCell id="GWrt1iCBhG3KNxmkTefN-0" value="" style="endArrow=open;endFill=1;endSize=12;html=1;rounded=0;entryX=0.5;entryY=0;entryDx=0;entryDy=0;exitX=0.5;exitY=1;exitDx=0;exitDy=0;" edge="1" parent="WIyWlLk6GJQsqaUBKTNV-1" source="Oi_0RJb_AG10MJE-mpay-90" target="Oi_0RJb_AG10MJE-mpay-117">
          <mxGeometry width="160" relative="1" as="geometry">
            <mxPoint x="209" y="126" as="sourcePoint" />
            <mxPoint x="428" y="226" as="targetPoint" />
          </mxGeometry>
        </mxCell>
        <mxCell id="GWrt1iCBhG3KNxmkTefN-1" value="" style="endArrow=open;endFill=1;endSize=12;html=1;rounded=0;entryX=0.5;entryY=0;entryDx=0;entryDy=0;exitX=0.5;exitY=1;exitDx=0;exitDy=0;" edge="1" parent="WIyWlLk6GJQsqaUBKTNV-1" source="Oi_0RJb_AG10MJE-mpay-90" target="Oi_0RJb_AG10MJE-mpay-119">
          <mxGeometry width="160" relative="1" as="geometry">
            <mxPoint x="428" y="260" as="sourcePoint" />
            <mxPoint x="541" y="437" as="targetPoint" />
          </mxGeometry>
        </mxCell>
        <mxCell id="GWrt1iCBhG3KNxmkTefN-2" value="" style="endArrow=open;endFill=1;endSize=12;html=1;rounded=0;exitX=0.5;exitY=1;exitDx=0;exitDy=0;" edge="1" parent="WIyWlLk6GJQsqaUBKTNV-1" source="Oi_0RJb_AG10MJE-mpay-90" target="Oi_0RJb_AG10MJE-mpay-121">
          <mxGeometry width="160" relative="1" as="geometry">
            <mxPoint x="428" y="260" as="sourcePoint" />
            <mxPoint x="541" y="504" as="targetPoint" />
          </mxGeometry>
        </mxCell>
        <mxCell id="Oi_0RJb_AG10MJE-mpay-175" value="" style="endArrow=open;endFill=1;endSize=12;html=1;rounded=0;exitX=0.5;exitY=0;exitDx=0;exitDy=0;entryX=0.5;entryY=1;entryDx=0;entryDy=0;" parent="WIyWlLk6GJQsqaUBKTNV-1" source="Oi_0RJb_AG10MJE-mpay-173" target="Oi_0RJb_AG10MJE-mpay-107" edge="1">
          <mxGeometry width="160" relative="1" as="geometry">
            <mxPoint x="657" y="756" as="sourcePoint" />
            <mxPoint x="796" y="821" as="targetPoint" />
          </mxGeometry>
        </mxCell>
        <mxCell id="-_F0cAaYSuwXFk3KjZpW-16" value="Extends" style="endArrow=block;endSize=16;endFill=0;html=1;rounded=0;movable=1;resizable=1;rotatable=1;deletable=1;editable=1;locked=0;connectable=1;entryX=0;entryY=0.5;entryDx=0;entryDy=0;exitX=1;exitY=0.5;exitDx=0;exitDy=0;" parent="WIyWlLk6GJQsqaUBKTNV-1" source="-_F0cAaYSuwXFk3KjZpW-48" target="-_F0cAaYSuwXFk3KjZpW-68" edge="1">
          <mxGeometry width="160" relative="1" as="geometry">
            <mxPoint x="1636" y="359" as="sourcePoint" />
            <mxPoint x="1757" y="361" as="targetPoint" />
          </mxGeometry>
        </mxCell>
        <mxCell id="-_F0cAaYSuwXFk3KjZpW-18" value="Extends" style="endArrow=block;endSize=16;endFill=0;html=1;rounded=0;exitX=1;exitY=0.5;exitDx=0;exitDy=0;movable=1;resizable=1;rotatable=1;deletable=1;editable=1;locked=0;connectable=1;entryX=0;entryY=0.5;entryDx=0;entryDy=0;" parent="WIyWlLk6GJQsqaUBKTNV-1" source="-_F0cAaYSuwXFk3KjZpW-55" target="-_F0cAaYSuwXFk3KjZpW-68" edge="1">
          <mxGeometry width="160" relative="1" as="geometry">
            <mxPoint x="1645" y="434" as="sourcePoint" />
            <mxPoint x="1757" y="361" as="targetPoint" />
          </mxGeometry>
        </mxCell>
        <mxCell id="-_F0cAaYSuwXFk3KjZpW-19" value="Extends" style="endArrow=block;endSize=16;endFill=0;html=1;rounded=0;exitX=1;exitY=0.5;exitDx=0;exitDy=0;movable=1;resizable=1;rotatable=1;deletable=1;editable=1;locked=0;connectable=1;entryX=0;entryY=0.5;entryDx=0;entryDy=0;" parent="WIyWlLk6GJQsqaUBKTNV-1" source="-_F0cAaYSuwXFk3KjZpW-57" target="-_F0cAaYSuwXFk3KjZpW-68" edge="1">
          <mxGeometry width="160" relative="1" as="geometry">
            <mxPoint x="1645" y="506" as="sourcePoint" />
            <mxPoint x="1757" y="361" as="targetPoint" />
          </mxGeometry>
        </mxCell>
        <mxCell id="-_F0cAaYSuwXFk3KjZpW-43" value="PWCharacterHUDComponent" style="swimlane;fontStyle=1;align=center;verticalAlign=top;childLayout=stackLayout;horizontal=1;startSize=26;horizontalStack=0;resizeParent=1;resizeParentMax=0;resizeLast=0;collapsible=1;marginBottom=0;whiteSpace=wrap;html=1;" parent="WIyWlLk6GJQsqaUBKTNV-1" vertex="1">
          <mxGeometry x="1216" y="344" width="179" height="34" as="geometry" />
        </mxCell>
        <mxCell id="-_F0cAaYSuwXFk3KjZpW-45" value="" style="line;strokeWidth=1;fillColor=none;align=left;verticalAlign=middle;spacingTop=-1;spacingLeft=3;spacingRight=3;rotatable=0;labelPosition=right;points=[];portConstraint=eastwest;strokeColor=inherit;" parent="-_F0cAaYSuwXFk3KjZpW-43" vertex="1">
          <mxGeometry y="26" width="179" height="8" as="geometry" />
        </mxCell>
        <mxCell id="-_F0cAaYSuwXFk3KjZpW-48" value="CharacterInGameHUD" style="swimlane;fontStyle=1;align=center;verticalAlign=top;childLayout=stackLayout;horizontal=1;startSize=26;horizontalStack=0;resizeParent=1;resizeParentMax=0;resizeLast=0;collapsible=1;marginBottom=0;whiteSpace=wrap;html=1;" parent="WIyWlLk6GJQsqaUBKTNV-1" vertex="1">
          <mxGeometry x="1449" y="344" width="179" height="34" as="geometry" />
        </mxCell>
        <mxCell id="-_F0cAaYSuwXFk3KjZpW-49" value="" style="line;strokeWidth=1;fillColor=none;align=left;verticalAlign=middle;spacingTop=-1;spacingLeft=3;spacingRight=3;rotatable=0;labelPosition=right;points=[];portConstraint=eastwest;strokeColor=inherit;" parent="-_F0cAaYSuwXFk3KjZpW-48" vertex="1">
          <mxGeometry y="26" width="179" height="8" as="geometry" />
        </mxCell>
        <mxCell id="-_F0cAaYSuwXFk3KjZpW-50" value="PWPlayerCharacter" style="swimlane;fontStyle=1;align=center;verticalAlign=top;childLayout=stackLayout;horizontal=1;startSize=26;horizontalStack=0;resizeParent=1;resizeParentMax=0;resizeLast=0;collapsible=1;marginBottom=0;whiteSpace=wrap;html=1;" parent="WIyWlLk6GJQsqaUBKTNV-1" vertex="1">
          <mxGeometry x="958" y="121" width="151" height="653" as="geometry" />
        </mxCell>
        <mxCell id="-_F0cAaYSuwXFk3KjZpW-51" value="" style="line;strokeWidth=1;fillColor=none;align=left;verticalAlign=middle;spacingTop=-1;spacingLeft=3;spacingRight=3;rotatable=0;labelPosition=right;points=[];portConstraint=eastwest;strokeColor=inherit;" parent="-_F0cAaYSuwXFk3KjZpW-50" vertex="1">
          <mxGeometry y="26" width="151" height="627" as="geometry" />
        </mxCell>
        <mxCell id="-_F0cAaYSuwXFk3KjZpW-55" value="MainWidget" style="swimlane;fontStyle=1;align=center;verticalAlign=top;childLayout=stackLayout;horizontal=1;startSize=26;horizontalStack=0;resizeParent=1;resizeParentMax=0;resizeLast=0;collapsible=1;marginBottom=0;whiteSpace=wrap;html=1;" parent="WIyWlLk6GJQsqaUBKTNV-1" vertex="1">
          <mxGeometry x="1498" y="405" width="130" height="34" as="geometry" />
        </mxCell>
        <mxCell id="-_F0cAaYSuwXFk3KjZpW-56" value="" style="line;strokeWidth=1;fillColor=none;align=left;verticalAlign=middle;spacingTop=-1;spacingLeft=3;spacingRight=3;rotatable=0;labelPosition=right;points=[];portConstraint=eastwest;strokeColor=inherit;" parent="-_F0cAaYSuwXFk3KjZpW-55" vertex="1">
          <mxGeometry y="26" width="130" height="8" as="geometry" />
        </mxCell>
        <mxCell id="-_F0cAaYSuwXFk3KjZpW-57" value="CharacterSelectionWidget" style="swimlane;fontStyle=1;align=center;verticalAlign=top;childLayout=stackLayout;horizontal=1;startSize=26;horizontalStack=0;resizeParent=1;resizeParentMax=0;resizeLast=0;collapsible=1;marginBottom=0;whiteSpace=wrap;html=1;" parent="WIyWlLk6GJQsqaUBKTNV-1" vertex="1">
          <mxGeometry x="1471" y="522" width="157" height="34" as="geometry" />
        </mxCell>
        <mxCell id="-_F0cAaYSuwXFk3KjZpW-58" value="" style="line;strokeWidth=1;fillColor=none;align=left;verticalAlign=middle;spacingTop=-1;spacingLeft=3;spacingRight=3;rotatable=0;labelPosition=right;points=[];portConstraint=eastwest;strokeColor=inherit;" parent="-_F0cAaYSuwXFk3KjZpW-57" vertex="1">
          <mxGeometry y="26" width="157" height="8" as="geometry" />
        </mxCell>
        <mxCell id="-_F0cAaYSuwXFk3KjZpW-59" value="MainWidget_CharacterButton" style="swimlane;fontStyle=1;align=center;verticalAlign=top;childLayout=stackLayout;horizontal=1;startSize=26;horizontalStack=0;resizeParent=1;resizeParentMax=0;resizeLast=0;collapsible=1;marginBottom=0;whiteSpace=wrap;html=1;" parent="WIyWlLk6GJQsqaUBKTNV-1" vertex="1">
          <mxGeometry x="1262" y="405" width="179" height="34" as="geometry" />
        </mxCell>
        <mxCell id="-_F0cAaYSuwXFk3KjZpW-60" value="" style="line;strokeWidth=1;fillColor=none;align=left;verticalAlign=middle;spacingTop=-1;spacingLeft=3;spacingRight=3;rotatable=0;labelPosition=right;points=[];portConstraint=eastwest;strokeColor=inherit;" parent="-_F0cAaYSuwXFk3KjZpW-59" vertex="1">
          <mxGeometry y="26" width="179" height="8" as="geometry" />
        </mxCell>
        <mxCell id="-_F0cAaYSuwXFk3KjZpW-61" value="CharacterSelectionButton" style="swimlane;fontStyle=1;align=center;verticalAlign=top;childLayout=stackLayout;horizontal=1;startSize=26;horizontalStack=0;resizeParent=1;resizeParentMax=0;resizeLast=0;collapsible=1;marginBottom=0;whiteSpace=wrap;html=1;" parent="WIyWlLk6GJQsqaUBKTNV-1" vertex="1">
          <mxGeometry x="1262" y="522" width="179" height="34" as="geometry" />
        </mxCell>
        <mxCell id="-_F0cAaYSuwXFk3KjZpW-62" value="" style="line;strokeWidth=1;fillColor=none;align=left;verticalAlign=middle;spacingTop=-1;spacingLeft=3;spacingRight=3;rotatable=0;labelPosition=right;points=[];portConstraint=eastwest;strokeColor=inherit;" parent="-_F0cAaYSuwXFk3KjZpW-61" vertex="1">
          <mxGeometry y="26" width="179" height="8" as="geometry" />
        </mxCell>
        <mxCell id="-_F0cAaYSuwXFk3KjZpW-68" value="PWUserWidget" style="swimlane;fontStyle=1;align=center;verticalAlign=top;childLayout=stackLayout;horizontal=1;startSize=26;horizontalStack=0;resizeParent=1;resizeParentMax=0;resizeLast=0;collapsible=1;marginBottom=0;whiteSpace=wrap;html=1;" parent="WIyWlLk6GJQsqaUBKTNV-1" vertex="1">
          <mxGeometry x="1766" y="344" width="130" height="34" as="geometry" />
        </mxCell>
        <mxCell id="-_F0cAaYSuwXFk3KjZpW-69" value="" style="line;strokeWidth=1;fillColor=none;align=left;verticalAlign=middle;spacingTop=-1;spacingLeft=3;spacingRight=3;rotatable=0;labelPosition=right;points=[];portConstraint=eastwest;strokeColor=inherit;" parent="-_F0cAaYSuwXFk3KjZpW-68" vertex="1">
          <mxGeometry y="26" width="130" height="8" as="geometry" />
        </mxCell>
        <mxCell id="-_F0cAaYSuwXFk3KjZpW-70" value="MasterWidget" style="swimlane;fontStyle=1;align=center;verticalAlign=top;childLayout=stackLayout;horizontal=1;startSize=26;horizontalStack=0;resizeParent=1;resizeParentMax=0;resizeLast=0;collapsible=1;marginBottom=0;whiteSpace=wrap;html=1;" parent="WIyWlLk6GJQsqaUBKTNV-1" vertex="1">
          <mxGeometry x="1766" y="522" width="130" height="34" as="geometry" />
        </mxCell>
        <mxCell id="-_F0cAaYSuwXFk3KjZpW-71" value="" style="line;strokeWidth=1;fillColor=none;align=left;verticalAlign=middle;spacingTop=-1;spacingLeft=3;spacingRight=3;rotatable=0;labelPosition=right;points=[];portConstraint=eastwest;strokeColor=inherit;" parent="-_F0cAaYSuwXFk3KjZpW-70" vertex="1">
          <mxGeometry y="26" width="130" height="8" as="geometry" />
        </mxCell>
        <mxCell id="-_F0cAaYSuwXFk3KjZpW-72" value="Extends" style="endArrow=block;endSize=16;endFill=0;html=1;rounded=0;exitX=0.5;exitY=0;exitDx=0;exitDy=0;movable=1;resizable=1;rotatable=1;deletable=1;editable=1;locked=0;connectable=1;entryX=0.5;entryY=1;entryDx=0;entryDy=0;" parent="WIyWlLk6GJQsqaUBKTNV-1" source="-_F0cAaYSuwXFk3KjZpW-70" target="-_F0cAaYSuwXFk3KjZpW-68" edge="1">
          <mxGeometry width="160" relative="1" as="geometry">
            <mxPoint x="1638" y="479" as="sourcePoint" />
            <mxPoint x="1767" y="371" as="targetPoint" />
          </mxGeometry>
        </mxCell>
        <mxCell id="Oi_0RJb_AG10MJE-mpay-0" value="PWEquipmentComponent" style="swimlane;fontStyle=1;align=center;verticalAlign=top;childLayout=stackLayout;horizontal=1;startSize=26;horizontalStack=0;resizeParent=1;resizeParentMax=0;resizeLast=0;collapsible=1;marginBottom=0;whiteSpace=wrap;html=1;" parent="WIyWlLk6GJQsqaUBKTNV-1" vertex="1">
          <mxGeometry x="1212" y="182" width="179" height="34" as="geometry" />
        </mxCell>
        <mxCell id="Oi_0RJb_AG10MJE-mpay-1" value="" style="line;strokeWidth=1;fillColor=none;align=left;verticalAlign=middle;spacingTop=-1;spacingLeft=3;spacingRight=3;rotatable=0;labelPosition=right;points=[];portConstraint=eastwest;strokeColor=inherit;" parent="Oi_0RJb_AG10MJE-mpay-0" vertex="1">
          <mxGeometry y="26" width="179" height="8" as="geometry" />
        </mxCell>
        <mxCell id="Oi_0RJb_AG10MJE-mpay-3" value="PWEquipmentActorBase" style="swimlane;fontStyle=1;align=center;verticalAlign=top;childLayout=stackLayout;horizontal=1;startSize=26;horizontalStack=0;resizeParent=1;resizeParentMax=0;resizeLast=0;collapsible=1;marginBottom=0;whiteSpace=wrap;html=1;" parent="WIyWlLk6GJQsqaUBKTNV-1" vertex="1">
          <mxGeometry x="1445" y="182" width="179" height="34" as="geometry" />
        </mxCell>
        <mxCell id="Oi_0RJb_AG10MJE-mpay-4" value="" style="line;strokeWidth=1;fillColor=none;align=left;verticalAlign=middle;spacingTop=-1;spacingLeft=3;spacingRight=3;rotatable=0;labelPosition=right;points=[];portConstraint=eastwest;strokeColor=inherit;" parent="Oi_0RJb_AG10MJE-mpay-3" vertex="1">
          <mxGeometry y="26" width="179" height="8" as="geometry" />
        </mxCell>
        <mxCell id="Oi_0RJb_AG10MJE-mpay-6" value="PWGameplayAbilityBase" style="swimlane;fontStyle=1;align=center;verticalAlign=top;childLayout=stackLayout;horizontal=1;startSize=26;horizontalStack=0;resizeParent=1;resizeParentMax=0;resizeLast=0;collapsible=1;marginBottom=0;whiteSpace=wrap;html=1;" parent="WIyWlLk6GJQsqaUBKTNV-1" vertex="1">
          <mxGeometry x="1724" y="182" width="179" height="34" as="geometry" />
        </mxCell>
        <mxCell id="Oi_0RJb_AG10MJE-mpay-7" value="" style="line;strokeWidth=1;fillColor=none;align=left;verticalAlign=middle;spacingTop=-1;spacingLeft=3;spacingRight=3;rotatable=0;labelPosition=right;points=[];portConstraint=eastwest;strokeColor=inherit;" parent="Oi_0RJb_AG10MJE-mpay-6" vertex="1">
          <mxGeometry y="26" width="179" height="8" as="geometry" />
        </mxCell>
        <mxCell id="Oi_0RJb_AG10MJE-mpay-8" value="PWAbilityTask_Tick" style="swimlane;fontStyle=1;align=center;verticalAlign=top;childLayout=stackLayout;horizontal=1;startSize=26;horizontalStack=0;resizeParent=1;resizeParentMax=0;resizeLast=0;collapsible=1;marginBottom=0;whiteSpace=wrap;html=1;" parent="WIyWlLk6GJQsqaUBKTNV-1" vertex="1">
          <mxGeometry x="1724" y="89" width="179" height="34" as="geometry" />
        </mxCell>
        <mxCell id="Oi_0RJb_AG10MJE-mpay-9" value="" style="line;strokeWidth=1;fillColor=none;align=left;verticalAlign=middle;spacingTop=-1;spacingLeft=3;spacingRight=3;rotatable=0;labelPosition=right;points=[];portConstraint=eastwest;strokeColor=inherit;" parent="Oi_0RJb_AG10MJE-mpay-8" vertex="1">
          <mxGeometry y="26" width="179" height="8" as="geometry" />
        </mxCell>
        <mxCell id="Oi_0RJb_AG10MJE-mpay-12" value="GA_BuildWall_Preview" style="swimlane;fontStyle=1;align=center;verticalAlign=top;childLayout=stackLayout;horizontal=1;startSize=26;horizontalStack=0;resizeParent=1;resizeParentMax=0;resizeLast=0;collapsible=1;marginBottom=0;whiteSpace=wrap;html=1;" parent="WIyWlLk6GJQsqaUBKTNV-1" vertex="1">
          <mxGeometry x="2007" y="48" width="179" height="34" as="geometry" />
        </mxCell>
        <mxCell id="Oi_0RJb_AG10MJE-mpay-13" value="" style="line;strokeWidth=1;fillColor=none;align=left;verticalAlign=middle;spacingTop=-1;spacingLeft=3;spacingRight=3;rotatable=0;labelPosition=right;points=[];portConstraint=eastwest;strokeColor=inherit;" parent="Oi_0RJb_AG10MJE-mpay-12" vertex="1">
          <mxGeometry y="26" width="179" height="8" as="geometry" />
        </mxCell>
        <mxCell id="Oi_0RJb_AG10MJE-mpay-14" value="GA_BuildWall" style="swimlane;fontStyle=1;align=center;verticalAlign=top;childLayout=stackLayout;horizontal=1;startSize=26;horizontalStack=0;resizeParent=1;resizeParentMax=0;resizeLast=0;collapsible=1;marginBottom=0;whiteSpace=wrap;html=1;" parent="WIyWlLk6GJQsqaUBKTNV-1" vertex="1">
          <mxGeometry x="2007" y="97" width="179" height="34" as="geometry" />
        </mxCell>
        <mxCell id="Oi_0RJb_AG10MJE-mpay-15" value="" style="line;strokeWidth=1;fillColor=none;align=left;verticalAlign=middle;spacingTop=-1;spacingLeft=3;spacingRight=3;rotatable=0;labelPosition=right;points=[];portConstraint=eastwest;strokeColor=inherit;" parent="Oi_0RJb_AG10MJE-mpay-14" vertex="1">
          <mxGeometry y="26" width="179" height="8" as="geometry" />
        </mxCell>
        <mxCell id="Oi_0RJb_AG10MJE-mpay-16" value="GA_HammerSmash" style="swimlane;fontStyle=1;align=center;verticalAlign=top;childLayout=stackLayout;horizontal=1;startSize=26;horizontalStack=0;resizeParent=1;resizeParentMax=0;resizeLast=0;collapsible=1;marginBottom=0;whiteSpace=wrap;html=1;" parent="WIyWlLk6GJQsqaUBKTNV-1" vertex="1">
          <mxGeometry x="2007" y="148" width="179" height="34" as="geometry" />
        </mxCell>
        <mxCell id="Oi_0RJb_AG10MJE-mpay-17" value="" style="line;strokeWidth=1;fillColor=none;align=left;verticalAlign=middle;spacingTop=-1;spacingLeft=3;spacingRight=3;rotatable=0;labelPosition=right;points=[];portConstraint=eastwest;strokeColor=inherit;" parent="Oi_0RJb_AG10MJE-mpay-16" vertex="1">
          <mxGeometry y="26" width="179" height="8" as="geometry" />
        </mxCell>
        <mxCell id="Oi_0RJb_AG10MJE-mpay-18" value="GA_Bandage" style="swimlane;fontStyle=1;align=center;verticalAlign=top;childLayout=stackLayout;horizontal=1;startSize=26;horizontalStack=0;resizeParent=1;resizeParentMax=0;resizeLast=0;collapsible=1;marginBottom=0;whiteSpace=wrap;html=1;" parent="WIyWlLk6GJQsqaUBKTNV-1" vertex="1">
          <mxGeometry x="2007" y="200" width="179" height="34" as="geometry" />
        </mxCell>
        <mxCell id="Oi_0RJb_AG10MJE-mpay-19" value="" style="line;strokeWidth=1;fillColor=none;align=left;verticalAlign=middle;spacingTop=-1;spacingLeft=3;spacingRight=3;rotatable=0;labelPosition=right;points=[];portConstraint=eastwest;strokeColor=inherit;" parent="Oi_0RJb_AG10MJE-mpay-18" vertex="1">
          <mxGeometry y="26" width="179" height="8" as="geometry" />
        </mxCell>
        <mxCell id="Oi_0RJb_AG10MJE-mpay-20" value="GA_AimDownSight" style="swimlane;fontStyle=1;align=center;verticalAlign=top;childLayout=stackLayout;horizontal=1;startSize=26;horizontalStack=0;resizeParent=1;resizeParentMax=0;resizeLast=0;collapsible=1;marginBottom=0;whiteSpace=wrap;html=1;" parent="WIyWlLk6GJQsqaUBKTNV-1" vertex="1">
          <mxGeometry x="2007" y="251" width="179" height="34" as="geometry" />
        </mxCell>
        <mxCell id="Oi_0RJb_AG10MJE-mpay-21" value="" style="line;strokeWidth=1;fillColor=none;align=left;verticalAlign=middle;spacingTop=-1;spacingLeft=3;spacingRight=3;rotatable=0;labelPosition=right;points=[];portConstraint=eastwest;strokeColor=inherit;" parent="Oi_0RJb_AG10MJE-mpay-20" vertex="1">
          <mxGeometry y="26" width="179" height="8" as="geometry" />
        </mxCell>
        <mxCell id="Oi_0RJb_AG10MJE-mpay-22" value="GA_Fire" style="swimlane;fontStyle=1;align=center;verticalAlign=top;childLayout=stackLayout;horizontal=1;startSize=26;horizontalStack=0;resizeParent=1;resizeParentMax=0;resizeLast=0;collapsible=1;marginBottom=0;whiteSpace=wrap;html=1;" parent="WIyWlLk6GJQsqaUBKTNV-1" vertex="1">
          <mxGeometry x="2007" y="302" width="179" height="34" as="geometry" />
        </mxCell>
        <mxCell id="Oi_0RJb_AG10MJE-mpay-23" value="" style="line;strokeWidth=1;fillColor=none;align=left;verticalAlign=middle;spacingTop=-1;spacingLeft=3;spacingRight=3;rotatable=0;labelPosition=right;points=[];portConstraint=eastwest;strokeColor=inherit;" parent="Oi_0RJb_AG10MJE-mpay-22" vertex="1">
          <mxGeometry y="26" width="179" height="8" as="geometry" />
        </mxCell>
        <mxCell id="Oi_0RJb_AG10MJE-mpay-24" value="Extends" style="endArrow=block;endSize=16;endFill=0;html=1;rounded=0;movable=1;resizable=1;rotatable=1;deletable=1;editable=1;locked=0;connectable=1;entryX=1;entryY=0.5;entryDx=0;entryDy=0;exitX=0;exitY=0.5;exitDx=0;exitDy=0;" parent="WIyWlLk6GJQsqaUBKTNV-1" source="Oi_0RJb_AG10MJE-mpay-12" target="Oi_0RJb_AG10MJE-mpay-6" edge="1">
          <mxGeometry width="160" relative="1" as="geometry">
            <mxPoint x="1767" y="270" as="sourcePoint" />
            <mxPoint x="1905" y="270" as="targetPoint" />
          </mxGeometry>
        </mxCell>
        <mxCell id="Oi_0RJb_AG10MJE-mpay-25" value="Extends" style="endArrow=block;endSize=16;endFill=0;html=1;rounded=0;movable=1;resizable=1;rotatable=1;deletable=1;editable=1;locked=0;connectable=1;entryX=1;entryY=0.5;entryDx=0;entryDy=0;exitX=0;exitY=0.5;exitDx=0;exitDy=0;" parent="WIyWlLk6GJQsqaUBKTNV-1" source="Oi_0RJb_AG10MJE-mpay-14" target="Oi_0RJb_AG10MJE-mpay-6" edge="1">
          <mxGeometry width="160" relative="1" as="geometry">
            <mxPoint x="2017" y="75" as="sourcePoint" />
            <mxPoint x="1913" y="209" as="targetPoint" />
          </mxGeometry>
        </mxCell>
        <mxCell id="Oi_0RJb_AG10MJE-mpay-26" value="Extends" style="endArrow=block;endSize=16;endFill=0;html=1;rounded=0;movable=1;resizable=1;rotatable=1;deletable=1;editable=1;locked=0;connectable=1;exitX=0;exitY=0.5;exitDx=0;exitDy=0;" parent="WIyWlLk6GJQsqaUBKTNV-1" source="Oi_0RJb_AG10MJE-mpay-16" edge="1">
          <mxGeometry width="160" relative="1" as="geometry">
            <mxPoint x="2027" y="85" as="sourcePoint" />
            <mxPoint x="1903" y="200" as="targetPoint" />
          </mxGeometry>
        </mxCell>
        <mxCell id="Oi_0RJb_AG10MJE-mpay-27" value="Extends" style="endArrow=block;endSize=16;endFill=0;html=1;rounded=0;movable=1;resizable=1;rotatable=1;deletable=1;editable=1;locked=0;connectable=1;entryX=1;entryY=0.5;entryDx=0;entryDy=0;exitX=0;exitY=0.5;exitDx=0;exitDy=0;" parent="WIyWlLk6GJQsqaUBKTNV-1" source="Oi_0RJb_AG10MJE-mpay-18" target="Oi_0RJb_AG10MJE-mpay-6" edge="1">
          <mxGeometry width="160" relative="1" as="geometry">
            <mxPoint x="2037" y="95" as="sourcePoint" />
            <mxPoint x="1933" y="229" as="targetPoint" />
          </mxGeometry>
        </mxCell>
        <mxCell id="Oi_0RJb_AG10MJE-mpay-28" value="Extends" style="endArrow=block;endSize=16;endFill=0;html=1;rounded=0;movable=1;resizable=1;rotatable=1;deletable=1;editable=1;locked=0;connectable=1;exitX=0;exitY=0.5;exitDx=0;exitDy=0;" parent="WIyWlLk6GJQsqaUBKTNV-1" source="Oi_0RJb_AG10MJE-mpay-20" edge="1">
          <mxGeometry width="160" relative="1" as="geometry">
            <mxPoint x="2047" y="105" as="sourcePoint" />
            <mxPoint x="1903" y="195" as="targetPoint" />
          </mxGeometry>
        </mxCell>
        <mxCell id="Oi_0RJb_AG10MJE-mpay-29" value="Extends" style="endArrow=block;endSize=16;endFill=0;html=1;rounded=0;movable=1;resizable=1;rotatable=1;deletable=1;editable=1;locked=0;connectable=1;entryX=1;entryY=0.5;entryDx=0;entryDy=0;exitX=0;exitY=0.5;exitDx=0;exitDy=0;" parent="WIyWlLk6GJQsqaUBKTNV-1" source="Oi_0RJb_AG10MJE-mpay-22" target="Oi_0RJb_AG10MJE-mpay-6" edge="1">
          <mxGeometry width="160" relative="1" as="geometry">
            <mxPoint x="2057" y="115" as="sourcePoint" />
            <mxPoint x="1953" y="249" as="targetPoint" />
          </mxGeometry>
        </mxCell>
        <mxCell id="Oi_0RJb_AG10MJE-mpay-30" value="PWBuildableWall" style="swimlane;fontStyle=1;align=center;verticalAlign=top;childLayout=stackLayout;horizontal=1;startSize=26;horizontalStack=0;resizeParent=1;resizeParentMax=0;resizeLast=0;collapsible=1;marginBottom=0;whiteSpace=wrap;html=1;" parent="WIyWlLk6GJQsqaUBKTNV-1" vertex="1">
          <mxGeometry x="2238" y="97" width="179" height="34" as="geometry" />
        </mxCell>
        <mxCell id="Oi_0RJb_AG10MJE-mpay-31" value="" style="line;strokeWidth=1;fillColor=none;align=left;verticalAlign=middle;spacingTop=-1;spacingLeft=3;spacingRight=3;rotatable=0;labelPosition=right;points=[];portConstraint=eastwest;strokeColor=inherit;" parent="Oi_0RJb_AG10MJE-mpay-30" vertex="1">
          <mxGeometry y="26" width="179" height="8" as="geometry" />
        </mxCell>
        <mxCell id="Oi_0RJb_AG10MJE-mpay-33" value="PWAnimInstance" style="swimlane;fontStyle=1;align=center;verticalAlign=top;childLayout=stackLayout;horizontal=1;startSize=26;horizontalStack=0;resizeParent=1;resizeParentMax=0;resizeLast=0;collapsible=1;marginBottom=0;whiteSpace=wrap;html=1;" parent="WIyWlLk6GJQsqaUBKTNV-1" vertex="1">
          <mxGeometry x="1212" y="635" width="179" height="34" as="geometry" />
        </mxCell>
        <mxCell id="Oi_0RJb_AG10MJE-mpay-34" value="" style="line;strokeWidth=1;fillColor=none;align=left;verticalAlign=middle;spacingTop=-1;spacingLeft=3;spacingRight=3;rotatable=0;labelPosition=right;points=[];portConstraint=eastwest;strokeColor=inherit;" parent="Oi_0RJb_AG10MJE-mpay-33" vertex="1">
          <mxGeometry y="26" width="179" height="8" as="geometry" />
        </mxCell>
        <mxCell id="Oi_0RJb_AG10MJE-mpay-36" value="PWPlayerController" style="swimlane;fontStyle=1;align=center;verticalAlign=top;childLayout=stackLayout;horizontal=1;startSize=26;horizontalStack=0;resizeParent=1;resizeParentMax=0;resizeLast=0;collapsible=1;marginBottom=0;whiteSpace=wrap;html=1;" parent="WIyWlLk6GJQsqaUBKTNV-1" vertex="1">
          <mxGeometry x="944" y="814" width="179" height="34" as="geometry" />
        </mxCell>
        <mxCell id="Oi_0RJb_AG10MJE-mpay-37" value="" style="line;strokeWidth=1;fillColor=none;align=left;verticalAlign=middle;spacingTop=-1;spacingLeft=3;spacingRight=3;rotatable=0;labelPosition=right;points=[];portConstraint=eastwest;strokeColor=inherit;" parent="Oi_0RJb_AG10MJE-mpay-36" vertex="1">
          <mxGeometry y="26" width="179" height="8" as="geometry" />
        </mxCell>
        <mxCell id="Oi_0RJb_AG10MJE-mpay-39" value="PWPlayerInputComponent" style="swimlane;fontStyle=1;align=center;verticalAlign=top;childLayout=stackLayout;horizontal=1;startSize=26;horizontalStack=0;resizeParent=1;resizeParentMax=0;resizeLast=0;collapsible=1;marginBottom=0;whiteSpace=wrap;html=1;" parent="WIyWlLk6GJQsqaUBKTNV-1" vertex="1">
          <mxGeometry x="1403" y="815" width="179" height="34" as="geometry" />
        </mxCell>
        <mxCell id="Oi_0RJb_AG10MJE-mpay-40" value="" style="line;strokeWidth=1;fillColor=none;align=left;verticalAlign=middle;spacingTop=-1;spacingLeft=3;spacingRight=3;rotatable=0;labelPosition=right;points=[];portConstraint=eastwest;strokeColor=inherit;" parent="Oi_0RJb_AG10MJE-mpay-39" vertex="1">
          <mxGeometry y="26" width="179" height="8" as="geometry" />
        </mxCell>
        <mxCell id="Oi_0RJb_AG10MJE-mpay-42" value="InputHandlerBase" style="swimlane;fontStyle=1;align=center;verticalAlign=top;childLayout=stackLayout;horizontal=1;startSize=26;horizontalStack=0;resizeParent=1;resizeParentMax=0;resizeLast=0;collapsible=1;marginBottom=0;whiteSpace=wrap;html=1;" parent="WIyWlLk6GJQsqaUBKTNV-1" vertex="1">
          <mxGeometry x="1636" y="815" width="179" height="34" as="geometry" />
        </mxCell>
        <mxCell id="Oi_0RJb_AG10MJE-mpay-43" value="" style="line;strokeWidth=1;fillColor=none;align=left;verticalAlign=middle;spacingTop=-1;spacingLeft=3;spacingRight=3;rotatable=0;labelPosition=right;points=[];portConstraint=eastwest;strokeColor=inherit;" parent="Oi_0RJb_AG10MJE-mpay-42" vertex="1">
          <mxGeometry y="26" width="179" height="8" as="geometry" />
        </mxCell>
        <mxCell id="Oi_0RJb_AG10MJE-mpay-45" value="CharacterInputHandler" style="swimlane;fontStyle=1;align=center;verticalAlign=top;childLayout=stackLayout;horizontal=1;startSize=26;horizontalStack=0;resizeParent=1;resizeParentMax=0;resizeLast=0;collapsible=1;marginBottom=0;whiteSpace=wrap;html=1;" parent="WIyWlLk6GJQsqaUBKTNV-1" vertex="1">
          <mxGeometry x="1888" y="748" width="179" height="34" as="geometry" />
        </mxCell>
        <mxCell id="Oi_0RJb_AG10MJE-mpay-46" value="" style="line;strokeWidth=1;fillColor=none;align=left;verticalAlign=middle;spacingTop=-1;spacingLeft=3;spacingRight=3;rotatable=0;labelPosition=right;points=[];portConstraint=eastwest;strokeColor=inherit;" parent="Oi_0RJb_AG10MJE-mpay-45" vertex="1">
          <mxGeometry y="26" width="179" height="8" as="geometry" />
        </mxCell>
        <mxCell id="Oi_0RJb_AG10MJE-mpay-47" value="CommanderInputHandler" style="swimlane;fontStyle=1;align=center;verticalAlign=top;childLayout=stackLayout;horizontal=1;startSize=26;horizontalStack=0;resizeParent=1;resizeParentMax=0;resizeLast=0;collapsible=1;marginBottom=0;whiteSpace=wrap;html=1;" parent="WIyWlLk6GJQsqaUBKTNV-1" vertex="1">
          <mxGeometry x="1888" y="806" width="179" height="34" as="geometry" />
        </mxCell>
        <mxCell id="Oi_0RJb_AG10MJE-mpay-48" value="" style="line;strokeWidth=1;fillColor=none;align=left;verticalAlign=middle;spacingTop=-1;spacingLeft=3;spacingRight=3;rotatable=0;labelPosition=right;points=[];portConstraint=eastwest;strokeColor=inherit;" parent="Oi_0RJb_AG10MJE-mpay-47" vertex="1">
          <mxGeometry y="26" width="179" height="8" as="geometry" />
        </mxCell>
        <mxCell id="Oi_0RJb_AG10MJE-mpay-49" value="SpawnCharacterInputHandler" style="swimlane;fontStyle=1;align=center;verticalAlign=top;childLayout=stackLayout;horizontal=1;startSize=26;horizontalStack=0;resizeParent=1;resizeParentMax=0;resizeLast=0;collapsible=1;marginBottom=0;whiteSpace=wrap;html=1;" parent="WIyWlLk6GJQsqaUBKTNV-1" vertex="1">
          <mxGeometry x="1888" y="860" width="179" height="34" as="geometry" />
        </mxCell>
        <mxCell id="Oi_0RJb_AG10MJE-mpay-50" value="" style="line;strokeWidth=1;fillColor=none;align=left;verticalAlign=middle;spacingTop=-1;spacingLeft=3;spacingRight=3;rotatable=0;labelPosition=right;points=[];portConstraint=eastwest;strokeColor=inherit;" parent="Oi_0RJb_AG10MJE-mpay-49" vertex="1">
          <mxGeometry y="26" width="179" height="8" as="geometry" />
        </mxCell>
        <mxCell id="Oi_0RJb_AG10MJE-mpay-51" value="PWSpawnAreaActor" style="swimlane;fontStyle=1;align=center;verticalAlign=top;childLayout=stackLayout;horizontal=1;startSize=26;horizontalStack=0;resizeParent=1;resizeParentMax=0;resizeLast=0;collapsible=1;marginBottom=0;whiteSpace=wrap;html=1;" parent="WIyWlLk6GJQsqaUBKTNV-1" vertex="1">
          <mxGeometry x="2123" y="860" width="179" height="34" as="geometry" />
        </mxCell>
        <mxCell id="Oi_0RJb_AG10MJE-mpay-52" value="" style="line;strokeWidth=1;fillColor=none;align=left;verticalAlign=middle;spacingTop=-1;spacingLeft=3;spacingRight=3;rotatable=0;labelPosition=right;points=[];portConstraint=eastwest;strokeColor=inherit;" parent="Oi_0RJb_AG10MJE-mpay-51" vertex="1">
          <mxGeometry y="26" width="179" height="8" as="geometry" />
        </mxCell>
        <mxCell id="Oi_0RJb_AG10MJE-mpay-53" value="" style="endArrow=open;endFill=1;endSize=12;html=1;rounded=0;exitX=1;exitY=0.5;exitDx=0;exitDy=0;" parent="WIyWlLk6GJQsqaUBKTNV-1" source="Oi_0RJb_AG10MJE-mpay-36" target="Oi_0RJb_AG10MJE-mpay-39" edge="1">
          <mxGeometry width="160" relative="1" as="geometry">
            <mxPoint x="1410.5" y="906" as="sourcePoint" />
            <mxPoint x="1570.5" y="906" as="targetPoint" />
          </mxGeometry>
        </mxCell>
        <mxCell id="Oi_0RJb_AG10MJE-mpay-54" value="" style="endArrow=open;endFill=1;endSize=12;html=1;rounded=0;exitX=0.5;exitY=0;exitDx=0;exitDy=0;entryX=0.5;entryY=1;entryDx=0;entryDy=0;" parent="WIyWlLk6GJQsqaUBKTNV-1" source="Oi_0RJb_AG10MJE-mpay-36" target="-_F0cAaYSuwXFk3KjZpW-50" edge="1">
          <mxGeometry width="160" relative="1" as="geometry">
            <mxPoint x="1133" y="816" as="sourcePoint" />
            <mxPoint x="1411" y="816" as="targetPoint" />
          </mxGeometry>
        </mxCell>
        <mxCell id="Oi_0RJb_AG10MJE-mpay-56" value="" style="endArrow=open;endFill=1;endSize=12;html=1;rounded=0;entryX=0;entryY=0.5;entryDx=0;entryDy=0;" parent="WIyWlLk6GJQsqaUBKTNV-1" target="Oi_0RJb_AG10MJE-mpay-33" edge="1">
          <mxGeometry width="160" relative="1" as="geometry">
            <mxPoint x="1109" y="650" as="sourcePoint" />
            <mxPoint x="1044" y="752" as="targetPoint" />
          </mxGeometry>
        </mxCell>
        <mxCell id="Oi_0RJb_AG10MJE-mpay-57" value="" style="endArrow=open;endFill=1;endSize=12;html=1;rounded=0;entryX=0;entryY=0.5;entryDx=0;entryDy=0;exitX=1;exitY=0.5;exitDx=0;exitDy=0;" parent="WIyWlLk6GJQsqaUBKTNV-1" source="Oi_0RJb_AG10MJE-mpay-39" target="Oi_0RJb_AG10MJE-mpay-42" edge="1">
          <mxGeometry width="160" relative="1" as="geometry">
            <mxPoint x="1348" y="743" as="sourcePoint" />
            <mxPoint x="1455" y="745" as="targetPoint" />
          </mxGeometry>
        </mxCell>
        <mxCell id="Oi_0RJb_AG10MJE-mpay-58" value="" style="endArrow=open;endFill=1;endSize=12;html=1;rounded=0;entryX=0;entryY=0.5;entryDx=0;entryDy=0;" parent="WIyWlLk6GJQsqaUBKTNV-1" target="-_F0cAaYSuwXFk3KjZpW-43" edge="1">
          <mxGeometry width="160" relative="1" as="geometry">
            <mxPoint x="1109" y="361" as="sourcePoint" />
            <mxPoint x="1221" y="567" as="targetPoint" />
          </mxGeometry>
        </mxCell>
        <mxCell id="Oi_0RJb_AG10MJE-mpay-59" value="" style="endArrow=open;endFill=1;endSize=12;html=1;rounded=0;entryX=0;entryY=0.5;entryDx=0;entryDy=0;" parent="WIyWlLk6GJQsqaUBKTNV-1" source="-_F0cAaYSuwXFk3KjZpW-43" target="-_F0cAaYSuwXFk3KjZpW-48" edge="1">
          <mxGeometry width="160" relative="1" as="geometry">
            <mxPoint x="1267" y="526" as="sourcePoint" />
            <mxPoint x="1369" y="524" as="targetPoint" />
          </mxGeometry>
        </mxCell>
        <mxCell id="Oi_0RJb_AG10MJE-mpay-60" value="" style="endArrow=open;endFill=1;endSize=12;html=1;rounded=0;exitX=0;exitY=0.5;exitDx=0;exitDy=0;entryX=1;entryY=0.5;entryDx=0;entryDy=0;" parent="WIyWlLk6GJQsqaUBKTNV-1" source="-_F0cAaYSuwXFk3KjZpW-55" target="-_F0cAaYSuwXFk3KjZpW-59" edge="1">
          <mxGeometry width="160" relative="1" as="geometry">
            <mxPoint x="1405" y="371" as="sourcePoint" />
            <mxPoint x="1463" y="441" as="targetPoint" />
          </mxGeometry>
        </mxCell>
        <mxCell id="Oi_0RJb_AG10MJE-mpay-61" value="" style="endArrow=open;endFill=1;endSize=12;html=1;rounded=0;entryX=1;entryY=0.5;entryDx=0;entryDy=0;exitX=0;exitY=0.5;exitDx=0;exitDy=0;" parent="WIyWlLk6GJQsqaUBKTNV-1" source="-_F0cAaYSuwXFk3KjZpW-57" target="-_F0cAaYSuwXFk3KjZpW-61" edge="1">
          <mxGeometry width="160" relative="1" as="geometry">
            <mxPoint x="1464" y="607" as="sourcePoint" />
            <mxPoint x="1508" y="502" as="targetPoint" />
          </mxGeometry>
        </mxCell>
        <mxCell id="Oi_0RJb_AG10MJE-mpay-62" value="" style="endArrow=open;endFill=1;endSize=12;html=1;rounded=0;entryX=0;entryY=0.5;entryDx=0;entryDy=0;exitX=1;exitY=0.5;exitDx=0;exitDy=0;" parent="WIyWlLk6GJQsqaUBKTNV-1" source="Oi_0RJb_AG10MJE-mpay-49" target="Oi_0RJb_AG10MJE-mpay-51" edge="1">
          <mxGeometry width="160" relative="1" as="geometry">
            <mxPoint x="1592" y="842" as="sourcePoint" />
            <mxPoint x="1646" y="842" as="targetPoint" />
          </mxGeometry>
        </mxCell>
        <mxCell id="Oi_0RJb_AG10MJE-mpay-63" value="Extends" style="endArrow=block;endSize=16;endFill=0;html=1;rounded=0;exitX=0;exitY=0.5;exitDx=0;exitDy=0;movable=1;resizable=1;rotatable=1;deletable=1;editable=1;locked=0;connectable=1;entryX=1;entryY=0.5;entryDx=0;entryDy=0;" parent="WIyWlLk6GJQsqaUBKTNV-1" source="Oi_0RJb_AG10MJE-mpay-45" target="Oi_0RJb_AG10MJE-mpay-42" edge="1">
          <mxGeometry width="160" relative="1" as="geometry">
            <mxPoint x="1636" y="611" as="sourcePoint" />
            <mxPoint x="1774" y="456" as="targetPoint" />
          </mxGeometry>
        </mxCell>
        <mxCell id="Oi_0RJb_AG10MJE-mpay-64" value="Extends" style="endArrow=block;endSize=16;endFill=0;html=1;rounded=0;exitX=0;exitY=0.5;exitDx=0;exitDy=0;movable=1;resizable=1;rotatable=1;deletable=1;editable=1;locked=0;connectable=1;entryX=1;entryY=0.5;entryDx=0;entryDy=0;" parent="WIyWlLk6GJQsqaUBKTNV-1" source="Oi_0RJb_AG10MJE-mpay-47" target="Oi_0RJb_AG10MJE-mpay-42" edge="1">
          <mxGeometry width="160" relative="1" as="geometry">
            <mxPoint x="1898" y="775" as="sourcePoint" />
            <mxPoint x="1825" y="842" as="targetPoint" />
          </mxGeometry>
        </mxCell>
        <mxCell id="Oi_0RJb_AG10MJE-mpay-65" value="Extends" style="endArrow=block;endSize=16;endFill=0;html=1;rounded=0;exitX=0;exitY=0.5;exitDx=0;exitDy=0;movable=1;resizable=1;rotatable=1;deletable=1;editable=1;locked=0;connectable=1;entryX=1;entryY=0.5;entryDx=0;entryDy=0;" parent="WIyWlLk6GJQsqaUBKTNV-1" source="Oi_0RJb_AG10MJE-mpay-49" target="Oi_0RJb_AG10MJE-mpay-42" edge="1">
          <mxGeometry width="160" relative="1" as="geometry">
            <mxPoint x="1898" y="833" as="sourcePoint" />
            <mxPoint x="1825" y="842" as="targetPoint" />
          </mxGeometry>
        </mxCell>
        <mxCell id="Oi_0RJb_AG10MJE-mpay-66" value="PWGameInstance" style="swimlane;fontStyle=1;align=center;verticalAlign=top;childLayout=stackLayout;horizontal=1;startSize=26;horizontalStack=0;resizeParent=1;resizeParentMax=0;resizeLast=0;collapsible=1;marginBottom=0;whiteSpace=wrap;html=1;" parent="WIyWlLk6GJQsqaUBKTNV-1" vertex="1">
          <mxGeometry x="1212" y="964" width="179" height="34" as="geometry" />
        </mxCell>
        <mxCell id="Oi_0RJb_AG10MJE-mpay-67" value="" style="line;strokeWidth=1;fillColor=none;align=left;verticalAlign=middle;spacingTop=-1;spacingLeft=3;spacingRight=3;rotatable=0;labelPosition=right;points=[];portConstraint=eastwest;strokeColor=inherit;" parent="Oi_0RJb_AG10MJE-mpay-66" vertex="1">
          <mxGeometry y="26" width="179" height="8" as="geometry" />
        </mxCell>
        <mxCell id="Oi_0RJb_AG10MJE-mpay-74" value="PWAssetLoadManager" style="swimlane;fontStyle=1;align=center;verticalAlign=top;childLayout=stackLayout;horizontal=1;startSize=26;horizontalStack=0;resizeParent=1;resizeParentMax=0;resizeLast=0;collapsible=1;marginBottom=0;whiteSpace=wrap;html=1;" parent="WIyWlLk6GJQsqaUBKTNV-1" vertex="1">
          <mxGeometry x="1125" y="1061" width="163" height="34" as="geometry" />
        </mxCell>
        <mxCell id="Oi_0RJb_AG10MJE-mpay-75" value="" style="line;strokeWidth=1;fillColor=none;align=left;verticalAlign=middle;spacingTop=-1;spacingLeft=3;spacingRight=3;rotatable=0;labelPosition=right;points=[];portConstraint=eastwest;strokeColor=inherit;" parent="Oi_0RJb_AG10MJE-mpay-74" vertex="1">
          <mxGeometry y="26" width="163" height="8" as="geometry" />
        </mxCell>
        <mxCell id="Oi_0RJb_AG10MJE-mpay-76" value="PWEventManager" style="swimlane;fontStyle=1;align=center;verticalAlign=top;childLayout=stackLayout;horizontal=1;startSize=26;horizontalStack=0;resizeParent=1;resizeParentMax=0;resizeLast=0;collapsible=1;marginBottom=0;whiteSpace=wrap;html=1;" parent="WIyWlLk6GJQsqaUBKTNV-1" vertex="1">
          <mxGeometry x="1309.5" y="1061" width="144" height="34" as="geometry" />
        </mxCell>
        <mxCell id="Oi_0RJb_AG10MJE-mpay-77" value="" style="line;strokeWidth=1;fillColor=none;align=left;verticalAlign=middle;spacingTop=-1;spacingLeft=3;spacingRight=3;rotatable=0;labelPosition=right;points=[];portConstraint=eastwest;strokeColor=inherit;" parent="Oi_0RJb_AG10MJE-mpay-76" vertex="1">
          <mxGeometry y="26" width="144" height="8" as="geometry" />
        </mxCell>
        <mxCell id="Oi_0RJb_AG10MJE-mpay-81" value="" style="endArrow=open;endFill=1;endSize=12;html=1;rounded=0;entryX=0.5;entryY=0;entryDx=0;entryDy=0;exitX=0.5;exitY=1;exitDx=0;exitDy=0;" parent="WIyWlLk6GJQsqaUBKTNV-1" source="Oi_0RJb_AG10MJE-mpay-66" target="Oi_0RJb_AG10MJE-mpay-74" edge="1">
          <mxGeometry width="160" relative="1" as="geometry">
            <mxPoint x="1311.5" y="1008" as="sourcePoint" />
            <mxPoint x="1216" y="1061" as="targetPoint" />
          </mxGeometry>
        </mxCell>
        <mxCell id="Oi_0RJb_AG10MJE-mpay-82" value="" style="endArrow=open;endFill=1;endSize=12;html=1;rounded=0;entryX=0.5;entryY=0;entryDx=0;entryDy=0;exitX=0.5;exitY=1;exitDx=0;exitDy=0;" parent="WIyWlLk6GJQsqaUBKTNV-1" source="Oi_0RJb_AG10MJE-mpay-66" target="Oi_0RJb_AG10MJE-mpay-76" edge="1">
          <mxGeometry width="160" relative="1" as="geometry">
            <mxPoint x="1311.5" y="1008" as="sourcePoint" />
            <mxPoint x="1475.5" y="1079" as="targetPoint" />
          </mxGeometry>
        </mxCell>
        <mxCell id="Oi_0RJb_AG10MJE-mpay-83" value="" style="endArrow=open;endFill=1;endSize=12;html=1;rounded=0;exitX=0.5;exitY=1;exitDx=0;exitDy=0;entryX=0.5;entryY=0;entryDx=0;entryDy=0;" parent="WIyWlLk6GJQsqaUBKTNV-1" source="Oi_0RJb_AG10MJE-mpay-33" target="Oi_0RJb_AG10MJE-mpay-66" edge="1">
          <mxGeometry width="160" relative="1" as="geometry">
            <mxPoint x="1719" y="939" as="sourcePoint" />
            <mxPoint x="1426" y="1010" as="targetPoint" />
            <Array as="points">
              <mxPoint x="1302" y="958" />
            </Array>
          </mxGeometry>
        </mxCell>
        <mxCell id="Oi_0RJb_AG10MJE-mpay-84" value="PWCommanderPointActor" style="swimlane;fontStyle=1;align=center;verticalAlign=top;childLayout=stackLayout;horizontal=1;startSize=26;horizontalStack=0;resizeParent=1;resizeParentMax=0;resizeLast=0;collapsible=1;marginBottom=0;whiteSpace=wrap;html=1;" parent="WIyWlLk6GJQsqaUBKTNV-1" vertex="1">
          <mxGeometry x="2029" y="448" width="179" height="34" as="geometry" />
        </mxCell>
        <mxCell id="Oi_0RJb_AG10MJE-mpay-85" value="" style="line;strokeWidth=1;fillColor=none;align=left;verticalAlign=middle;spacingTop=-1;spacingLeft=3;spacingRight=3;rotatable=0;labelPosition=right;points=[];portConstraint=eastwest;strokeColor=inherit;" parent="Oi_0RJb_AG10MJE-mpay-84" vertex="1">
          <mxGeometry y="26" width="179" height="8" as="geometry" />
        </mxCell>
        <mxCell id="Oi_0RJb_AG10MJE-mpay-86" value="PWGameData" style="swimlane;fontStyle=1;align=center;verticalAlign=top;childLayout=stackLayout;horizontal=1;startSize=26;horizontalStack=0;resizeParent=1;resizeParentMax=0;resizeLast=0;collapsible=1;marginBottom=0;whiteSpace=wrap;html=1;" parent="WIyWlLk6GJQsqaUBKTNV-1" vertex="1">
          <mxGeometry x="109" y="82" width="179" height="34" as="geometry" />
        </mxCell>
        <mxCell id="Oi_0RJb_AG10MJE-mpay-87" value="" style="line;strokeWidth=1;fillColor=none;align=left;verticalAlign=middle;spacingTop=-1;spacingLeft=3;spacingRight=3;rotatable=0;labelPosition=right;points=[];portConstraint=eastwest;strokeColor=inherit;" parent="Oi_0RJb_AG10MJE-mpay-86" vertex="1">
          <mxGeometry y="26" width="179" height="8" as="geometry" />
        </mxCell>
        <mxCell id="Oi_0RJb_AG10MJE-mpay-88" value="PWGameplayEffectDataTableRow" style="swimlane;fontStyle=1;align=center;verticalAlign=top;childLayout=stackLayout;horizontal=1;startSize=26;horizontalStack=0;resizeParent=1;resizeParentMax=0;resizeLast=0;collapsible=1;marginBottom=0;whiteSpace=wrap;html=1;" parent="WIyWlLk6GJQsqaUBKTNV-1" vertex="1">
          <mxGeometry x="90" y="216" width="221" height="34" as="geometry" />
        </mxCell>
        <mxCell id="Oi_0RJb_AG10MJE-mpay-89" value="" style="line;strokeWidth=1;fillColor=none;align=left;verticalAlign=middle;spacingTop=-1;spacingLeft=3;spacingRight=3;rotatable=0;labelPosition=right;points=[];portConstraint=eastwest;strokeColor=inherit;" parent="Oi_0RJb_AG10MJE-mpay-88" vertex="1">
          <mxGeometry y="26" width="221" height="8" as="geometry" />
        </mxCell>
        <mxCell id="Oi_0RJb_AG10MJE-mpay-90" value="PWCharacterDataTableRow" style="swimlane;fontStyle=1;align=center;verticalAlign=top;childLayout=stackLayout;horizontal=1;startSize=26;horizontalStack=0;resizeParent=1;resizeParentMax=0;resizeLast=0;collapsible=1;marginBottom=0;whiteSpace=wrap;html=1;" parent="WIyWlLk6GJQsqaUBKTNV-1" vertex="1">
          <mxGeometry x="328" y="216" width="179" height="34" as="geometry" />
        </mxCell>
        <mxCell id="Oi_0RJb_AG10MJE-mpay-91" value="" style="line;strokeWidth=1;fillColor=none;align=left;verticalAlign=middle;spacingTop=-1;spacingLeft=3;spacingRight=3;rotatable=0;labelPosition=right;points=[];portConstraint=eastwest;strokeColor=inherit;" parent="Oi_0RJb_AG10MJE-mpay-90" vertex="1">
          <mxGeometry y="26" width="179" height="8" as="geometry" />
        </mxCell>
        <mxCell id="Oi_0RJb_AG10MJE-mpay-92" value="PWEquipmentDataTableRow&lt;div&gt;&lt;br&gt;&lt;/div&gt;" style="swimlane;fontStyle=1;align=center;verticalAlign=top;childLayout=stackLayout;horizontal=1;startSize=26;horizontalStack=0;resizeParent=1;resizeParentMax=0;resizeLast=0;collapsible=1;marginBottom=0;whiteSpace=wrap;html=1;" parent="WIyWlLk6GJQsqaUBKTNV-1" vertex="1">
          <mxGeometry x="709" y="216" width="179" height="34" as="geometry" />
        </mxCell>
        <mxCell id="Oi_0RJb_AG10MJE-mpay-93" value="" style="line;strokeWidth=1;fillColor=none;align=left;verticalAlign=middle;spacingTop=-1;spacingLeft=3;spacingRight=3;rotatable=0;labelPosition=right;points=[];portConstraint=eastwest;strokeColor=inherit;" parent="Oi_0RJb_AG10MJE-mpay-92" vertex="1">
          <mxGeometry y="26" width="179" height="8" as="geometry" />
        </mxCell>
        <mxCell id="Oi_0RJb_AG10MJE-mpay-94" value="&lt;div&gt;PWLevelDataTableRow&lt;/div&gt;&lt;div&gt;&lt;br&gt;&lt;/div&gt;" style="swimlane;fontStyle=1;align=center;verticalAlign=top;childLayout=stackLayout;horizontal=1;startSize=26;horizontalStack=0;resizeParent=1;resizeParentMax=0;resizeLast=0;collapsible=1;marginBottom=0;whiteSpace=wrap;html=1;" parent="WIyWlLk6GJQsqaUBKTNV-1" vertex="1">
          <mxGeometry x="517" y="216" width="179" height="34" as="geometry" />
        </mxCell>
        <mxCell id="Oi_0RJb_AG10MJE-mpay-95" value="" style="line;strokeWidth=1;fillColor=none;align=left;verticalAlign=middle;spacingTop=-1;spacingLeft=3;spacingRight=3;rotatable=0;labelPosition=right;points=[];portConstraint=eastwest;strokeColor=inherit;" parent="Oi_0RJb_AG10MJE-mpay-94" vertex="1">
          <mxGeometry y="26" width="179" height="8" as="geometry" />
        </mxCell>
        <mxCell id="Oi_0RJb_AG10MJE-mpay-96" value="" style="endArrow=open;endFill=1;endSize=12;html=1;rounded=0;entryX=0;entryY=0.5;entryDx=0;entryDy=0;" parent="WIyWlLk6GJQsqaUBKTNV-1" target="Oi_0RJb_AG10MJE-mpay-0" edge="1">
          <mxGeometry width="160" relative="1" as="geometry">
            <mxPoint x="1109" y="198" as="sourcePoint" />
            <mxPoint x="1275" y="288" as="targetPoint" />
          </mxGeometry>
        </mxCell>
        <mxCell id="Oi_0RJb_AG10MJE-mpay-97" value="" style="endArrow=open;endFill=1;endSize=12;html=1;rounded=0;entryX=0;entryY=0.5;entryDx=0;entryDy=0;exitX=1;exitY=0.5;exitDx=0;exitDy=0;" parent="WIyWlLk6GJQsqaUBKTNV-1" source="Oi_0RJb_AG10MJE-mpay-0" target="Oi_0RJb_AG10MJE-mpay-3" edge="1">
          <mxGeometry width="160" relative="1" as="geometry">
            <mxPoint x="1291" y="279" as="sourcePoint" />
            <mxPoint x="1394" y="280" as="targetPoint" />
          </mxGeometry>
        </mxCell>
        <mxCell id="Oi_0RJb_AG10MJE-mpay-98" value="" style="endArrow=open;endFill=1;endSize=12;html=1;rounded=0;entryX=0;entryY=0.5;entryDx=0;entryDy=0;exitX=1;exitY=0.5;exitDx=0;exitDy=0;" parent="WIyWlLk6GJQsqaUBKTNV-1" source="Oi_0RJb_AG10MJE-mpay-3" target="Oi_0RJb_AG10MJE-mpay-6" edge="1">
          <mxGeometry width="160" relative="1" as="geometry">
            <mxPoint x="1516" y="265" as="sourcePoint" />
            <mxPoint x="1570" y="265" as="targetPoint" />
          </mxGeometry>
        </mxCell>
        <mxCell id="Oi_0RJb_AG10MJE-mpay-99" value="" style="endArrow=open;endFill=1;endSize=12;html=1;rounded=0;entryX=0.5;entryY=1;entryDx=0;entryDy=0;" parent="WIyWlLk6GJQsqaUBKTNV-1" source="Oi_0RJb_AG10MJE-mpay-6" target="Oi_0RJb_AG10MJE-mpay-8" edge="1">
          <mxGeometry width="160" relative="1" as="geometry">
            <mxPoint x="1735" y="307" as="sourcePoint" />
            <mxPoint x="1835" y="307" as="targetPoint" />
          </mxGeometry>
        </mxCell>
        <mxCell id="Oi_0RJb_AG10MJE-mpay-100" value="" style="endArrow=open;endFill=1;endSize=12;html=1;rounded=0;entryX=0;entryY=0.5;entryDx=0;entryDy=0;" parent="WIyWlLk6GJQsqaUBKTNV-1" source="Oi_0RJb_AG10MJE-mpay-14" target="Oi_0RJb_AG10MJE-mpay-30" edge="1">
          <mxGeometry width="160" relative="1" as="geometry">
            <mxPoint x="2345" y="246.5" as="sourcePoint" />
            <mxPoint x="2345" y="187.5" as="targetPoint" />
          </mxGeometry>
        </mxCell>
        <mxCell id="Oi_0RJb_AG10MJE-mpay-101" value="" style="endArrow=open;endFill=1;endSize=12;html=1;rounded=0;entryX=0.5;entryY=0;entryDx=0;entryDy=0;exitX=0.5;exitY=0;exitDx=0;exitDy=0;" parent="WIyWlLk6GJQsqaUBKTNV-1" source="Oi_0RJb_AG10MJE-mpay-3" target="Oi_0RJb_AG10MJE-mpay-92" edge="1">
          <mxGeometry width="160" relative="1" as="geometry">
            <mxPoint x="1119" y="208" as="sourcePoint" />
            <mxPoint x="1222" y="209" as="targetPoint" />
            <Array as="points">
              <mxPoint x="1537" y="83" />
              <mxPoint x="978" y="77" />
            </Array>
          </mxGeometry>
        </mxCell>
        <mxCell id="Oi_0RJb_AG10MJE-mpay-103" value="PWAnimDataAsset" style="swimlane;fontStyle=1;align=center;verticalAlign=top;childLayout=stackLayout;horizontal=1;startSize=26;horizontalStack=0;resizeParent=1;resizeParentMax=0;resizeLast=0;collapsible=1;marginBottom=0;whiteSpace=wrap;html=1;" parent="WIyWlLk6GJQsqaUBKTNV-1" vertex="1">
          <mxGeometry x="307" y="82" width="179" height="34" as="geometry" />
        </mxCell>
        <mxCell id="Oi_0RJb_AG10MJE-mpay-104" value="" style="line;strokeWidth=1;fillColor=none;align=left;verticalAlign=middle;spacingTop=-1;spacingLeft=3;spacingRight=3;rotatable=0;labelPosition=right;points=[];portConstraint=eastwest;strokeColor=inherit;" parent="Oi_0RJb_AG10MJE-mpay-103" vertex="1">
          <mxGeometry y="26" width="179" height="8" as="geometry" />
        </mxCell>
        <mxCell id="Oi_0RJb_AG10MJE-mpay-105" value="PWGameSetting&lt;div&gt;&lt;br&gt;&lt;/div&gt;" style="swimlane;fontStyle=1;align=center;verticalAlign=top;childLayout=stackLayout;horizontal=1;startSize=26;horizontalStack=0;resizeParent=1;resizeParentMax=0;resizeLast=0;collapsible=1;marginBottom=0;whiteSpace=wrap;html=1;" parent="WIyWlLk6GJQsqaUBKTNV-1" vertex="1">
          <mxGeometry x="510" y="82" width="179" height="34" as="geometry" />
        </mxCell>
        <mxCell id="Oi_0RJb_AG10MJE-mpay-106" value="" style="line;strokeWidth=1;fillColor=none;align=left;verticalAlign=middle;spacingTop=-1;spacingLeft=3;spacingRight=3;rotatable=0;labelPosition=right;points=[];portConstraint=eastwest;strokeColor=inherit;" parent="Oi_0RJb_AG10MJE-mpay-105" vertex="1">
          <mxGeometry y="26" width="179" height="8" as="geometry" />
        </mxCell>
        <mxCell id="Oi_0RJb_AG10MJE-mpay-107" value="PWSoundData&lt;div&gt;&lt;br&gt;&lt;/div&gt;" style="swimlane;fontStyle=1;align=center;verticalAlign=top;childLayout=stackLayout;horizontal=1;startSize=26;horizontalStack=0;resizeParent=1;resizeParentMax=0;resizeLast=0;collapsible=1;marginBottom=0;whiteSpace=wrap;html=1;" parent="WIyWlLk6GJQsqaUBKTNV-1" vertex="1">
          <mxGeometry x="709" y="82" width="179" height="34" as="geometry" />
        </mxCell>
        <mxCell id="Oi_0RJb_AG10MJE-mpay-108" value="" style="line;strokeWidth=1;fillColor=none;align=left;verticalAlign=middle;spacingTop=-1;spacingLeft=3;spacingRight=3;rotatable=0;labelPosition=right;points=[];portConstraint=eastwest;strokeColor=inherit;" parent="Oi_0RJb_AG10MJE-mpay-107" vertex="1">
          <mxGeometry y="26" width="179" height="8" as="geometry" />
        </mxCell>
        <mxCell id="Oi_0RJb_AG10MJE-mpay-110" value="" style="endArrow=open;endFill=1;endSize=12;html=1;rounded=0;entryX=0.5;entryY=0;entryDx=0;entryDy=0;exitX=0.5;exitY=1;exitDx=0;exitDy=0;" parent="WIyWlLk6GJQsqaUBKTNV-1" source="Oi_0RJb_AG10MJE-mpay-86" target="Oi_0RJb_AG10MJE-mpay-88" edge="1">
          <mxGeometry width="160" relative="1" as="geometry">
            <mxPoint x="534" y="304" as="sourcePoint" />
            <mxPoint x="637" y="305" as="targetPoint" />
          </mxGeometry>
        </mxCell>
        <mxCell id="Oi_0RJb_AG10MJE-mpay-111" value="" style="endArrow=open;endFill=1;endSize=12;html=1;rounded=0;entryX=0.5;entryY=0;entryDx=0;entryDy=0;exitX=0.5;exitY=1;exitDx=0;exitDy=0;" parent="WIyWlLk6GJQsqaUBKTNV-1" source="Oi_0RJb_AG10MJE-mpay-86" target="Oi_0RJb_AG10MJE-mpay-90" edge="1">
          <mxGeometry width="160" relative="1" as="geometry">
            <mxPoint x="209" y="126" as="sourcePoint" />
            <mxPoint x="220" y="226" as="targetPoint" />
          </mxGeometry>
        </mxCell>
        <mxCell id="Oi_0RJb_AG10MJE-mpay-112" value="" style="endArrow=open;endFill=1;endSize=12;html=1;rounded=0;entryX=0.5;entryY=0;entryDx=0;entryDy=0;exitX=0.5;exitY=1;exitDx=0;exitDy=0;" parent="WIyWlLk6GJQsqaUBKTNV-1" source="Oi_0RJb_AG10MJE-mpay-86" target="Oi_0RJb_AG10MJE-mpay-94" edge="1">
          <mxGeometry width="160" relative="1" as="geometry">
            <mxPoint x="209" y="126" as="sourcePoint" />
            <mxPoint x="428" y="226" as="targetPoint" />
          </mxGeometry>
        </mxCell>
        <mxCell id="Oi_0RJb_AG10MJE-mpay-113" value="" style="endArrow=open;endFill=1;endSize=12;html=1;rounded=0;entryX=0.5;entryY=0;entryDx=0;entryDy=0;exitX=0.5;exitY=1;exitDx=0;exitDy=0;" parent="WIyWlLk6GJQsqaUBKTNV-1" source="Oi_0RJb_AG10MJE-mpay-86" target="Oi_0RJb_AG10MJE-mpay-92" edge="1">
          <mxGeometry width="160" relative="1" as="geometry">
            <mxPoint x="209" y="126" as="sourcePoint" />
            <mxPoint x="617" y="226" as="targetPoint" />
          </mxGeometry>
        </mxCell>
        <mxCell id="Oi_0RJb_AG10MJE-mpay-114" value="PWAttributeSetBase" style="swimlane;fontStyle=1;align=center;verticalAlign=top;childLayout=stackLayout;horizontal=1;startSize=26;horizontalStack=0;resizeParent=1;resizeParentMax=0;resizeLast=0;collapsible=1;marginBottom=0;whiteSpace=wrap;html=1;" parent="WIyWlLk6GJQsqaUBKTNV-1" vertex="1">
          <mxGeometry x="152" y="320" width="173" height="341" as="geometry" />
        </mxCell>
        <mxCell id="Oi_0RJb_AG10MJE-mpay-115" value="" style="line;strokeWidth=1;fillColor=none;align=left;verticalAlign=middle;spacingTop=-1;spacingLeft=3;spacingRight=3;rotatable=0;labelPosition=right;points=[];portConstraint=eastwest;strokeColor=inherit;" parent="Oi_0RJb_AG10MJE-mpay-114" vertex="1">
          <mxGeometry y="26" width="173" height="315" as="geometry" />
        </mxCell>
        <mxCell id="Oi_0RJb_AG10MJE-mpay-116" value="" style="endArrow=open;endFill=1;endSize=12;html=1;rounded=0;" parent="WIyWlLk6GJQsqaUBKTNV-1" edge="1">
          <mxGeometry width="160" relative="1" as="geometry">
            <mxPoint x="958" y="388" as="sourcePoint" />
            <mxPoint x="325" y="390" as="targetPoint" />
          </mxGeometry>
        </mxCell>
        <mxCell id="Oi_0RJb_AG10MJE-mpay-117" value="PWAttributeSet_Attackable" style="swimlane;fontStyle=1;align=center;verticalAlign=top;childLayout=stackLayout;horizontal=1;startSize=26;horizontalStack=0;resizeParent=1;resizeParentMax=0;resizeLast=0;collapsible=1;marginBottom=0;whiteSpace=wrap;html=1;" parent="WIyWlLk6GJQsqaUBKTNV-1" vertex="1">
          <mxGeometry x="441" y="427" width="179" height="34" as="geometry" />
        </mxCell>
        <mxCell id="Oi_0RJb_AG10MJE-mpay-118" value="" style="line;strokeWidth=1;fillColor=none;align=left;verticalAlign=middle;spacingTop=-1;spacingLeft=3;spacingRight=3;rotatable=0;labelPosition=right;points=[];portConstraint=eastwest;strokeColor=inherit;" parent="Oi_0RJb_AG10MJE-mpay-117" vertex="1">
          <mxGeometry y="26" width="179" height="8" as="geometry" />
        </mxCell>
        <mxCell id="Oi_0RJb_AG10MJE-mpay-119" value="PWAttributeSet_Damageable" style="swimlane;fontStyle=1;align=center;verticalAlign=top;childLayout=stackLayout;horizontal=1;startSize=26;horizontalStack=0;resizeParent=1;resizeParentMax=0;resizeLast=0;collapsible=1;marginBottom=0;whiteSpace=wrap;html=1;" parent="WIyWlLk6GJQsqaUBKTNV-1" vertex="1">
          <mxGeometry x="441" y="494" width="179" height="34" as="geometry" />
        </mxCell>
        <mxCell id="Oi_0RJb_AG10MJE-mpay-120" value="" style="line;strokeWidth=1;fillColor=none;align=left;verticalAlign=middle;spacingTop=-1;spacingLeft=3;spacingRight=3;rotatable=0;labelPosition=right;points=[];portConstraint=eastwest;strokeColor=inherit;" parent="Oi_0RJb_AG10MJE-mpay-119" vertex="1">
          <mxGeometry y="26" width="179" height="8" as="geometry" />
        </mxCell>
        <mxCell id="Oi_0RJb_AG10MJE-mpay-121" value="PWAttributeSet_Healable" style="swimlane;fontStyle=1;align=center;verticalAlign=top;childLayout=stackLayout;horizontal=1;startSize=26;horizontalStack=0;resizeParent=1;resizeParentMax=0;resizeLast=0;collapsible=1;marginBottom=0;whiteSpace=wrap;html=1;" parent="WIyWlLk6GJQsqaUBKTNV-1" vertex="1">
          <mxGeometry x="441" y="568" width="179" height="34" as="geometry" />
        </mxCell>
        <mxCell id="Oi_0RJb_AG10MJE-mpay-122" value="" style="line;strokeWidth=1;fillColor=none;align=left;verticalAlign=middle;spacingTop=-1;spacingLeft=3;spacingRight=3;rotatable=0;labelPosition=right;points=[];portConstraint=eastwest;strokeColor=inherit;" parent="Oi_0RJb_AG10MJE-mpay-121" vertex="1">
          <mxGeometry y="26" width="179" height="8" as="geometry" />
        </mxCell>
        <mxCell id="Oi_0RJb_AG10MJE-mpay-123" value="Extends" style="endArrow=block;endSize=16;endFill=0;html=1;rounded=0;movable=1;resizable=1;rotatable=1;deletable=1;editable=1;locked=0;connectable=1;entryX=1;entryY=0.5;entryDx=0;entryDy=0;exitX=0;exitY=0.5;exitDx=0;exitDy=0;" parent="WIyWlLk6GJQsqaUBKTNV-1" source="Oi_0RJb_AG10MJE-mpay-117" target="Oi_0RJb_AG10MJE-mpay-114" edge="1">
          <mxGeometry width="160" relative="1" as="geometry">
            <mxPoint x="612" y="524" as="sourcePoint" />
            <mxPoint x="750" y="524" as="targetPoint" />
          </mxGeometry>
        </mxCell>
        <mxCell id="Oi_0RJb_AG10MJE-mpay-124" value="Extends" style="endArrow=block;endSize=16;endFill=0;html=1;rounded=0;movable=1;resizable=1;rotatable=1;deletable=1;editable=1;locked=0;connectable=1;entryX=1;entryY=0.5;entryDx=0;entryDy=0;exitX=0;exitY=0.5;exitDx=0;exitDy=0;" parent="WIyWlLk6GJQsqaUBKTNV-1" source="Oi_0RJb_AG10MJE-mpay-119" target="Oi_0RJb_AG10MJE-mpay-114" edge="1">
          <mxGeometry width="160" relative="1" as="geometry">
            <mxPoint x="450" y="484" as="sourcePoint" />
            <mxPoint x="335" y="556" as="targetPoint" />
          </mxGeometry>
        </mxCell>
        <mxCell id="Oi_0RJb_AG10MJE-mpay-125" value="Extends" style="endArrow=block;endSize=16;endFill=0;html=1;rounded=0;movable=1;resizable=1;rotatable=1;deletable=1;editable=1;locked=0;connectable=1;entryX=1;entryY=0.5;entryDx=0;entryDy=0;exitX=0;exitY=0.5;exitDx=0;exitDy=0;" parent="WIyWlLk6GJQsqaUBKTNV-1" source="Oi_0RJb_AG10MJE-mpay-121" target="Oi_0RJb_AG10MJE-mpay-114" edge="1">
          <mxGeometry width="160" relative="1" as="geometry">
            <mxPoint x="460" y="494" as="sourcePoint" />
            <mxPoint x="345" y="566" as="targetPoint" />
          </mxGeometry>
        </mxCell>
        <mxCell id="Oi_0RJb_AG10MJE-mpay-126" value="«interface»&lt;br&gt;&lt;b&gt;PWAttackableInterface&lt;/b&gt;" style="html=1;whiteSpace=wrap;" parent="WIyWlLk6GJQsqaUBKTNV-1" vertex="1">
          <mxGeometry x="710" y="419" width="150" height="50" as="geometry" />
        </mxCell>
        <mxCell id="Oi_0RJb_AG10MJE-mpay-127" value="«interface»&lt;br&gt;&lt;b&gt;PWDamageableInterface&lt;/b&gt;" style="html=1;whiteSpace=wrap;" parent="WIyWlLk6GJQsqaUBKTNV-1" vertex="1">
          <mxGeometry x="710" y="486" width="150" height="50" as="geometry" />
        </mxCell>
        <mxCell id="Oi_0RJb_AG10MJE-mpay-128" value="«interface»&lt;br&gt;&lt;b&gt;PWHealableInterface&lt;/b&gt;" style="html=1;whiteSpace=wrap;" parent="WIyWlLk6GJQsqaUBKTNV-1" vertex="1">
          <mxGeometry x="710" y="560" width="150" height="50" as="geometry" />
        </mxCell>
        <mxCell id="Oi_0RJb_AG10MJE-mpay-129" value="" style="endArrow=block;dashed=1;endFill=0;endSize=12;html=1;rounded=0;entryX=1;entryY=0.5;entryDx=0;entryDy=0;" parent="WIyWlLk6GJQsqaUBKTNV-1" target="Oi_0RJb_AG10MJE-mpay-126" edge="1">
          <mxGeometry width="160" relative="1" as="geometry">
            <mxPoint x="959" y="507" as="sourcePoint" />
            <mxPoint x="860" y="688" as="targetPoint" />
          </mxGeometry>
        </mxCell>
        <mxCell id="Oi_0RJb_AG10MJE-mpay-130" value="" style="endArrow=block;dashed=1;endFill=0;endSize=12;html=1;rounded=0;entryX=1;entryY=0.5;entryDx=0;entryDy=0;" parent="WIyWlLk6GJQsqaUBKTNV-1" target="Oi_0RJb_AG10MJE-mpay-127" edge="1">
          <mxGeometry width="160" relative="1" as="geometry">
            <mxPoint x="957" y="508" as="sourcePoint" />
            <mxPoint x="869" y="484" as="targetPoint" />
          </mxGeometry>
        </mxCell>
        <mxCell id="Oi_0RJb_AG10MJE-mpay-131" value="" style="endArrow=block;dashed=1;endFill=0;endSize=12;html=1;rounded=0;entryX=1;entryY=0.5;entryDx=0;entryDy=0;" parent="WIyWlLk6GJQsqaUBKTNV-1" target="Oi_0RJb_AG10MJE-mpay-128" edge="1">
          <mxGeometry width="160" relative="1" as="geometry">
            <mxPoint x="957" y="509" as="sourcePoint" />
            <mxPoint x="869" y="551" as="targetPoint" />
          </mxGeometry>
        </mxCell>
        <mxCell id="Oi_0RJb_AG10MJE-mpay-132" value="" style="endArrow=none;html=1;edgeStyle=orthogonalEdgeStyle;rounded=0;entryX=0;entryY=0.5;entryDx=0;entryDy=0;" parent="WIyWlLk6GJQsqaUBKTNV-1" source="Oi_0RJb_AG10MJE-mpay-117" target="Oi_0RJb_AG10MJE-mpay-126" edge="1">
          <mxGeometry relative="1" as="geometry">
            <mxPoint x="559" y="692" as="sourcePoint" />
            <mxPoint x="719" y="692" as="targetPoint" />
          </mxGeometry>
        </mxCell>
        <mxCell id="Oi_0RJb_AG10MJE-mpay-135" value="" style="endArrow=none;html=1;edgeStyle=orthogonalEdgeStyle;rounded=0;entryX=0;entryY=0.5;entryDx=0;entryDy=0;exitX=1;exitY=0.5;exitDx=0;exitDy=0;" parent="WIyWlLk6GJQsqaUBKTNV-1" source="Oi_0RJb_AG10MJE-mpay-119" target="Oi_0RJb_AG10MJE-mpay-127" edge="1">
          <mxGeometry relative="1" as="geometry">
            <mxPoint x="630" y="454" as="sourcePoint" />
            <mxPoint x="720" y="454" as="targetPoint" />
          </mxGeometry>
        </mxCell>
        <mxCell id="Oi_0RJb_AG10MJE-mpay-136" value="" style="endArrow=none;html=1;edgeStyle=orthogonalEdgeStyle;rounded=0;entryX=0;entryY=0.5;entryDx=0;entryDy=0;exitX=1;exitY=0.5;exitDx=0;exitDy=0;" parent="WIyWlLk6GJQsqaUBKTNV-1" source="Oi_0RJb_AG10MJE-mpay-121" target="Oi_0RJb_AG10MJE-mpay-128" edge="1">
          <mxGeometry relative="1" as="geometry">
            <mxPoint x="630" y="521" as="sourcePoint" />
            <mxPoint x="720" y="521" as="targetPoint" />
          </mxGeometry>
        </mxCell>
        <mxCell id="Oi_0RJb_AG10MJE-mpay-137" value="PWPlayerState" style="swimlane;fontStyle=1;align=center;verticalAlign=top;childLayout=stackLayout;horizontal=1;startSize=26;horizontalStack=0;resizeParent=1;resizeParentMax=0;resizeLast=0;collapsible=1;marginBottom=0;whiteSpace=wrap;html=1;" parent="WIyWlLk6GJQsqaUBKTNV-1" vertex="1">
          <mxGeometry x="944" y="897" width="179" height="34" as="geometry" />
        </mxCell>
        <mxCell id="Oi_0RJb_AG10MJE-mpay-138" value="" style="line;strokeWidth=1;fillColor=none;align=left;verticalAlign=middle;spacingTop=-1;spacingLeft=3;spacingRight=3;rotatable=0;labelPosition=right;points=[];portConstraint=eastwest;strokeColor=inherit;" parent="Oi_0RJb_AG10MJE-mpay-137" vertex="1">
          <mxGeometry y="26" width="179" height="8" as="geometry" />
        </mxCell>
        <mxCell id="Oi_0RJb_AG10MJE-mpay-140" value="" style="endArrow=open;endFill=1;endSize=12;html=1;rounded=0;exitX=0.5;exitY=1;exitDx=0;exitDy=0;entryX=0.5;entryY=0;entryDx=0;entryDy=0;" parent="WIyWlLk6GJQsqaUBKTNV-1" source="Oi_0RJb_AG10MJE-mpay-36" target="Oi_0RJb_AG10MJE-mpay-137" edge="1">
          <mxGeometry width="160" relative="1" as="geometry">
            <mxPoint x="1133" y="841" as="sourcePoint" />
            <mxPoint x="1413" y="842" as="targetPoint" />
          </mxGeometry>
        </mxCell>
        <mxCell id="Oi_0RJb_AG10MJE-mpay-141" value="PWGameMode" style="swimlane;fontStyle=1;align=center;verticalAlign=top;childLayout=stackLayout;horizontal=1;startSize=26;horizontalStack=0;resizeParent=1;resizeParentMax=0;resizeLast=0;collapsible=1;marginBottom=0;whiteSpace=wrap;html=1;" parent="WIyWlLk6GJQsqaUBKTNV-1" vertex="1">
          <mxGeometry x="696" y="811" width="179" height="34" as="geometry" />
        </mxCell>
        <mxCell id="Oi_0RJb_AG10MJE-mpay-142" value="" style="line;strokeWidth=1;fillColor=none;align=left;verticalAlign=middle;spacingTop=-1;spacingLeft=3;spacingRight=3;rotatable=0;labelPosition=right;points=[];portConstraint=eastwest;strokeColor=inherit;" parent="Oi_0RJb_AG10MJE-mpay-141" vertex="1">
          <mxGeometry y="26" width="179" height="8" as="geometry" />
        </mxCell>
        <mxCell id="Oi_0RJb_AG10MJE-mpay-143" value="PWGameState" style="swimlane;fontStyle=1;align=center;verticalAlign=top;childLayout=stackLayout;horizontal=1;startSize=26;horizontalStack=0;resizeParent=1;resizeParentMax=0;resizeLast=0;collapsible=1;marginBottom=0;whiteSpace=wrap;html=1;" parent="WIyWlLk6GJQsqaUBKTNV-1" vertex="1">
          <mxGeometry x="697.5" y="880" width="179" height="34" as="geometry" />
        </mxCell>
        <mxCell id="Oi_0RJb_AG10MJE-mpay-144" value="" style="line;strokeWidth=1;fillColor=none;align=left;verticalAlign=middle;spacingTop=-1;spacingLeft=3;spacingRight=3;rotatable=0;labelPosition=right;points=[];portConstraint=eastwest;strokeColor=inherit;" parent="Oi_0RJb_AG10MJE-mpay-143" vertex="1">
          <mxGeometry y="26" width="179" height="8" as="geometry" />
        </mxCell>
        <mxCell id="Oi_0RJb_AG10MJE-mpay-145" value="" style="endArrow=open;endFill=1;endSize=12;html=1;rounded=0;exitX=0.5;exitY=1;exitDx=0;exitDy=0;entryX=0.5;entryY=0;entryDx=0;entryDy=0;" parent="WIyWlLk6GJQsqaUBKTNV-1" source="Oi_0RJb_AG10MJE-mpay-141" target="Oi_0RJb_AG10MJE-mpay-143" edge="1">
          <mxGeometry width="160" relative="1" as="geometry">
            <mxPoint x="1035" y="772" as="sourcePoint" />
            <mxPoint x="1035" y="821" as="targetPoint" />
          </mxGeometry>
        </mxCell>
        <mxCell id="Oi_0RJb_AG10MJE-mpay-146" value="PWSteamMatchMakingSubsystem" style="swimlane;fontStyle=1;align=center;verticalAlign=top;childLayout=stackLayout;horizontal=1;startSize=26;horizontalStack=0;resizeParent=1;resizeParentMax=0;resizeLast=0;collapsible=1;marginBottom=0;whiteSpace=wrap;html=1;" parent="WIyWlLk6GJQsqaUBKTNV-1" vertex="1">
          <mxGeometry x="426.5" y="811" width="222" height="34" as="geometry" />
        </mxCell>
        <mxCell id="Oi_0RJb_AG10MJE-mpay-147" value="" style="line;strokeWidth=1;fillColor=none;align=left;verticalAlign=middle;spacingTop=-1;spacingLeft=3;spacingRight=3;rotatable=0;labelPosition=right;points=[];portConstraint=eastwest;strokeColor=inherit;" parent="Oi_0RJb_AG10MJE-mpay-146" vertex="1">
          <mxGeometry y="26" width="222" height="8" as="geometry" />
        </mxCell>
        <mxCell id="Oi_0RJb_AG10MJE-mpay-148" value="" style="endArrow=open;endFill=1;endSize=12;html=1;rounded=0;exitX=1;exitY=0.5;exitDx=0;exitDy=0;" parent="WIyWlLk6GJQsqaUBKTNV-1" source="Oi_0RJb_AG10MJE-mpay-146" target="Oi_0RJb_AG10MJE-mpay-141" edge="1">
          <mxGeometry width="160" relative="1" as="geometry">
            <mxPoint x="795" y="855" as="sourcePoint" />
            <mxPoint x="795" y="911" as="targetPoint" />
          </mxGeometry>
        </mxCell>
        <mxCell id="Oi_0RJb_AG10MJE-mpay-149" value="PWTurnManageSubsysem" style="swimlane;fontStyle=1;align=center;verticalAlign=top;childLayout=stackLayout;horizontal=1;startSize=26;horizontalStack=0;resizeParent=1;resizeParentMax=0;resizeLast=0;collapsible=1;marginBottom=0;whiteSpace=wrap;html=1;" parent="WIyWlLk6GJQsqaUBKTNV-1" vertex="1">
          <mxGeometry x="426.5" y="880" width="225" height="34" as="geometry" />
        </mxCell>
        <mxCell id="Oi_0RJb_AG10MJE-mpay-150" value="" style="line;strokeWidth=1;fillColor=none;align=left;verticalAlign=middle;spacingTop=-1;spacingLeft=3;spacingRight=3;rotatable=0;labelPosition=right;points=[];portConstraint=eastwest;strokeColor=inherit;" parent="Oi_0RJb_AG10MJE-mpay-149" vertex="1">
          <mxGeometry y="26" width="225" height="8" as="geometry" />
        </mxCell>
        <mxCell id="Oi_0RJb_AG10MJE-mpay-151" value="PWVolumeActorBase" style="swimlane;fontStyle=1;align=center;verticalAlign=top;childLayout=stackLayout;horizontal=1;startSize=26;horizontalStack=0;resizeParent=1;resizeParentMax=0;resizeLast=0;collapsible=1;marginBottom=0;whiteSpace=wrap;html=1;" parent="WIyWlLk6GJQsqaUBKTNV-1" vertex="1">
          <mxGeometry x="442.5" y="972" width="187" height="34" as="geometry" />
        </mxCell>
        <mxCell id="Oi_0RJb_AG10MJE-mpay-152" value="" style="line;strokeWidth=1;fillColor=none;align=left;verticalAlign=middle;spacingTop=-1;spacingLeft=3;spacingRight=3;rotatable=0;labelPosition=right;points=[];portConstraint=eastwest;strokeColor=inherit;" parent="Oi_0RJb_AG10MJE-mpay-151" vertex="1">
          <mxGeometry y="26" width="187" height="8" as="geometry" />
        </mxCell>
        <mxCell id="Oi_0RJb_AG10MJE-mpay-153" value="" style="endArrow=open;endFill=1;endSize=12;html=1;rounded=0;exitX=1;exitY=0.5;exitDx=0;exitDy=0;entryX=0;entryY=0.5;entryDx=0;entryDy=0;" parent="WIyWlLk6GJQsqaUBKTNV-1" source="Oi_0RJb_AG10MJE-mpay-149" target="Oi_0RJb_AG10MJE-mpay-143" edge="1">
          <mxGeometry width="160" relative="1" as="geometry">
            <mxPoint x="657" y="756" as="sourcePoint" />
            <mxPoint x="796" y="821" as="targetPoint" />
          </mxGeometry>
        </mxCell>
        <mxCell id="Oi_0RJb_AG10MJE-mpay-154" value="" style="endArrow=open;endFill=1;endSize=12;html=1;rounded=0;exitX=0.5;exitY=1;exitDx=0;exitDy=0;" parent="WIyWlLk6GJQsqaUBKTNV-1" source="Oi_0RJb_AG10MJE-mpay-149" target="Oi_0RJb_AG10MJE-mpay-151" edge="1">
          <mxGeometry width="160" relative="1" as="geometry">
            <mxPoint x="640" y="928" as="sourcePoint" />
            <mxPoint x="706" y="928" as="targetPoint" />
          </mxGeometry>
        </mxCell>
        <mxCell id="Oi_0RJb_AG10MJE-mpay-155" value="PWVolumeActorLocator" style="swimlane;fontStyle=1;align=center;verticalAlign=top;childLayout=stackLayout;horizontal=1;startSize=26;horizontalStack=0;resizeParent=1;resizeParentMax=0;resizeLast=0;collapsible=1;marginBottom=0;whiteSpace=wrap;html=1;" parent="WIyWlLk6GJQsqaUBKTNV-1" vertex="1">
          <mxGeometry x="194" y="972" width="187" height="34" as="geometry" />
        </mxCell>
        <mxCell id="Oi_0RJb_AG10MJE-mpay-156" value="" style="line;strokeWidth=1;fillColor=none;align=left;verticalAlign=middle;spacingTop=-1;spacingLeft=3;spacingRight=3;rotatable=0;labelPosition=right;points=[];portConstraint=eastwest;strokeColor=inherit;" parent="Oi_0RJb_AG10MJE-mpay-155" vertex="1">
          <mxGeometry y="26" width="187" height="8" as="geometry" />
        </mxCell>
        <mxCell id="Oi_0RJb_AG10MJE-mpay-157" value="" style="endArrow=open;endFill=1;endSize=12;html=1;rounded=0;exitX=1;exitY=0.5;exitDx=0;exitDy=0;entryX=0;entryY=0.5;entryDx=0;entryDy=0;" parent="WIyWlLk6GJQsqaUBKTNV-1" source="Oi_0RJb_AG10MJE-mpay-155" target="Oi_0RJb_AG10MJE-mpay-151" edge="1">
          <mxGeometry width="160" relative="1" as="geometry">
            <mxPoint x="546" y="945" as="sourcePoint" />
            <mxPoint x="546" y="982" as="targetPoint" />
          </mxGeometry>
        </mxCell>
        <mxCell id="Oi_0RJb_AG10MJE-mpay-158" value="PWVolumeActor_Effect" style="swimlane;fontStyle=1;align=center;verticalAlign=top;childLayout=stackLayout;horizontal=1;startSize=26;horizontalStack=0;resizeParent=1;resizeParentMax=0;resizeLast=0;collapsible=1;marginBottom=0;whiteSpace=wrap;html=1;" parent="WIyWlLk6GJQsqaUBKTNV-1" vertex="1">
          <mxGeometry x="328" y="1072" width="187" height="34" as="geometry" />
        </mxCell>
        <mxCell id="Oi_0RJb_AG10MJE-mpay-159" value="" style="line;strokeWidth=1;fillColor=none;align=left;verticalAlign=middle;spacingTop=-1;spacingLeft=3;spacingRight=3;rotatable=0;labelPosition=right;points=[];portConstraint=eastwest;strokeColor=inherit;" parent="Oi_0RJb_AG10MJE-mpay-158" vertex="1">
          <mxGeometry y="26" width="187" height="8" as="geometry" />
        </mxCell>
        <mxCell id="Oi_0RJb_AG10MJE-mpay-160" value="PWVolumeActor_TurnActivePoint" style="swimlane;fontStyle=1;align=center;verticalAlign=top;childLayout=stackLayout;horizontal=1;startSize=26;horizontalStack=0;resizeParent=1;resizeParentMax=0;resizeLast=0;collapsible=1;marginBottom=0;whiteSpace=wrap;html=1;" parent="WIyWlLk6GJQsqaUBKTNV-1" vertex="1">
          <mxGeometry x="549" y="1072" width="207" height="34" as="geometry" />
        </mxCell>
        <mxCell id="Oi_0RJb_AG10MJE-mpay-161" value="" style="line;strokeWidth=1;fillColor=none;align=left;verticalAlign=middle;spacingTop=-1;spacingLeft=3;spacingRight=3;rotatable=0;labelPosition=right;points=[];portConstraint=eastwest;strokeColor=inherit;" parent="Oi_0RJb_AG10MJE-mpay-160" vertex="1">
          <mxGeometry y="26" width="207" height="8" as="geometry" />
        </mxCell>
        <mxCell id="Oi_0RJb_AG10MJE-mpay-162" value="Extends" style="endArrow=block;endSize=16;endFill=0;html=1;rounded=0;exitX=0.5;exitY=0;exitDx=0;exitDy=0;movable=1;resizable=1;rotatable=1;deletable=1;editable=1;locked=0;connectable=1;entryX=0.5;entryY=1;entryDx=0;entryDy=0;" parent="WIyWlLk6GJQsqaUBKTNV-1" source="Oi_0RJb_AG10MJE-mpay-160" target="Oi_0RJb_AG10MJE-mpay-151" edge="1">
          <mxGeometry width="160" relative="1" as="geometry">
            <mxPoint x="870" y="993" as="sourcePoint" />
            <mxPoint x="797" y="1060" as="targetPoint" />
          </mxGeometry>
        </mxCell>
        <mxCell id="Oi_0RJb_AG10MJE-mpay-163" value="Extends" style="endArrow=block;endSize=16;endFill=0;html=1;rounded=0;exitX=0.5;exitY=0;exitDx=0;exitDy=0;movable=1;resizable=1;rotatable=1;deletable=1;editable=1;locked=0;connectable=1;" parent="WIyWlLk6GJQsqaUBKTNV-1" source="Oi_0RJb_AG10MJE-mpay-158" edge="1">
          <mxGeometry width="160" relative="1" as="geometry">
            <mxPoint x="663" y="1082" as="sourcePoint" />
            <mxPoint x="537" y="1006" as="targetPoint" />
          </mxGeometry>
        </mxCell>
        <mxCell id="Oi_0RJb_AG10MJE-mpay-164" value="PWGameEnum" style="swimlane;fontStyle=1;align=center;verticalAlign=top;childLayout=stackLayout;horizontal=1;startSize=26;horizontalStack=0;resizeParent=1;resizeParentMax=0;resizeLast=0;collapsible=1;marginBottom=0;whiteSpace=wrap;html=1;" parent="WIyWlLk6GJQsqaUBKTNV-1" vertex="1">
          <mxGeometry x="1502" y="996" width="124" height="34" as="geometry" />
        </mxCell>
        <mxCell id="Oi_0RJb_AG10MJE-mpay-165" value="" style="line;strokeWidth=1;fillColor=none;align=left;verticalAlign=middle;spacingTop=-1;spacingLeft=3;spacingRight=3;rotatable=0;labelPosition=right;points=[];portConstraint=eastwest;strokeColor=inherit;" parent="Oi_0RJb_AG10MJE-mpay-164" vertex="1">
          <mxGeometry y="26" width="124" height="8" as="geometry" />
        </mxCell>
        <mxCell id="Oi_0RJb_AG10MJE-mpay-166" value="PWGameplayStatics" style="swimlane;fontStyle=1;align=center;verticalAlign=top;childLayout=stackLayout;horizontal=1;startSize=26;horizontalStack=0;resizeParent=1;resizeParentMax=0;resizeLast=0;collapsible=1;marginBottom=0;whiteSpace=wrap;html=1;" parent="WIyWlLk6GJQsqaUBKTNV-1" vertex="1">
          <mxGeometry x="1640" y="996" width="137" height="34" as="geometry" />
        </mxCell>
        <mxCell id="Oi_0RJb_AG10MJE-mpay-167" value="" style="line;strokeWidth=1;fillColor=none;align=left;verticalAlign=middle;spacingTop=-1;spacingLeft=3;spacingRight=3;rotatable=0;labelPosition=right;points=[];portConstraint=eastwest;strokeColor=inherit;" parent="Oi_0RJb_AG10MJE-mpay-166" vertex="1">
          <mxGeometry y="26" width="137" height="8" as="geometry" />
        </mxCell>
        <mxCell id="Oi_0RJb_AG10MJE-mpay-168" value="PWGameplayCueNotify_Actor" style="swimlane;fontStyle=1;align=center;verticalAlign=top;childLayout=stackLayout;horizontal=1;startSize=26;horizontalStack=0;resizeParent=1;resizeParentMax=0;resizeLast=0;collapsible=1;marginBottom=0;whiteSpace=wrap;html=1;" parent="WIyWlLk6GJQsqaUBKTNV-1" vertex="1">
          <mxGeometry x="2242" y="448" width="225.5" height="34" as="geometry" />
        </mxCell>
        <mxCell id="Oi_0RJb_AG10MJE-mpay-169" value="" style="line;strokeWidth=1;fillColor=none;align=left;verticalAlign=middle;spacingTop=-1;spacingLeft=3;spacingRight=3;rotatable=0;labelPosition=right;points=[];portConstraint=eastwest;strokeColor=inherit;" parent="Oi_0RJb_AG10MJE-mpay-168" vertex="1">
          <mxGeometry y="26" width="225.5" height="8" as="geometry" />
        </mxCell>
        <mxCell id="Oi_0RJb_AG10MJE-mpay-173" value="PWBGMManageSubsystem" style="swimlane;fontStyle=1;align=center;verticalAlign=top;childLayout=stackLayout;horizontal=1;startSize=26;horizontalStack=0;resizeParent=1;resizeParentMax=0;resizeLast=0;collapsible=1;marginBottom=0;whiteSpace=wrap;html=1;" parent="WIyWlLk6GJQsqaUBKTNV-1" vertex="1">
          <mxGeometry x="425" y="740" width="222" height="34" as="geometry" />
        </mxCell>
        <mxCell id="Oi_0RJb_AG10MJE-mpay-174" value="" style="line;strokeWidth=1;fillColor=none;align=left;verticalAlign=middle;spacingTop=-1;spacingLeft=3;spacingRight=3;rotatable=0;labelPosition=right;points=[];portConstraint=eastwest;strokeColor=inherit;" parent="Oi_0RJb_AG10MJE-mpay-173" vertex="1">
          <mxGeometry y="26" width="222" height="8" as="geometry" />
        </mxCell>
        <mxCell id="Oi_0RJb_AG10MJE-mpay-177" value="PWGameMode_MainMenu" style="swimlane;fontStyle=1;align=center;verticalAlign=top;childLayout=stackLayout;horizontal=1;startSize=26;horizontalStack=0;resizeParent=1;resizeParentMax=0;resizeLast=0;collapsible=1;marginBottom=0;whiteSpace=wrap;html=1;" parent="WIyWlLk6GJQsqaUBKTNV-1" vertex="1">
          <mxGeometry x="697.5" y="734" width="179" height="34" as="geometry" />
        </mxCell>
        <mxCell id="Oi_0RJb_AG10MJE-mpay-178" value="" style="line;strokeWidth=1;fillColor=none;align=left;verticalAlign=middle;spacingTop=-1;spacingLeft=3;spacingRight=3;rotatable=0;labelPosition=right;points=[];portConstraint=eastwest;strokeColor=inherit;" parent="Oi_0RJb_AG10MJE-mpay-177" vertex="1">
          <mxGeometry y="26" width="179" height="8" as="geometry" />
        </mxCell>
        <mxCell id="Oi_0RJb_AG10MJE-mpay-181" value="LoadingWidget" style="swimlane;fontStyle=1;align=center;verticalAlign=top;childLayout=stackLayout;horizontal=1;startSize=26;horizontalStack=0;resizeParent=1;resizeParentMax=0;resizeLast=0;collapsible=1;marginBottom=0;whiteSpace=wrap;html=1;" parent="WIyWlLk6GJQsqaUBKTNV-1" vertex="1">
          <mxGeometry x="1496.5" y="463" width="130" height="34" as="geometry" />
        </mxCell>
        <mxCell id="Oi_0RJb_AG10MJE-mpay-182" value="" style="line;strokeWidth=1;fillColor=none;align=left;verticalAlign=middle;spacingTop=-1;spacingLeft=3;spacingRight=3;rotatable=0;labelPosition=right;points=[];portConstraint=eastwest;strokeColor=inherit;" parent="Oi_0RJb_AG10MJE-mpay-181" vertex="1">
          <mxGeometry y="26" width="130" height="8" as="geometry" />
        </mxCell>
        <mxCell id="Oi_0RJb_AG10MJE-mpay-183" value="MainWidget_SkillPanel" style="swimlane;fontStyle=1;align=center;verticalAlign=top;childLayout=stackLayout;horizontal=1;startSize=26;horizontalStack=0;resizeParent=1;resizeParentMax=0;resizeLast=0;collapsible=1;marginBottom=0;whiteSpace=wrap;html=1;" parent="WIyWlLk6GJQsqaUBKTNV-1" vertex="1">
          <mxGeometry x="1262" y="450" width="179" height="34" as="geometry" />
        </mxCell>
        <mxCell id="Oi_0RJb_AG10MJE-mpay-184" value="" style="line;strokeWidth=1;fillColor=none;align=left;verticalAlign=middle;spacingTop=-1;spacingLeft=3;spacingRight=3;rotatable=0;labelPosition=right;points=[];portConstraint=eastwest;strokeColor=inherit;" parent="Oi_0RJb_AG10MJE-mpay-183" vertex="1">
          <mxGeometry y="26" width="179" height="8" as="geometry" />
        </mxCell>
        <mxCell id="Oi_0RJb_AG10MJE-mpay-186" value="" style="endArrow=open;endFill=1;endSize=12;html=1;rounded=0;exitX=0;exitY=0.5;exitDx=0;exitDy=0;entryX=1;entryY=0.5;entryDx=0;entryDy=0;" parent="WIyWlLk6GJQsqaUBKTNV-1" source="-_F0cAaYSuwXFk3KjZpW-55" target="Oi_0RJb_AG10MJE-mpay-183" edge="1">
          <mxGeometry width="160" relative="1" as="geometry">
            <mxPoint x="1508" y="432" as="sourcePoint" />
            <mxPoint x="1451" y="432" as="targetPoint" />
          </mxGeometry>
        </mxCell>
        <mxCell id="Oi_0RJb_AG10MJE-mpay-187" value="Extends" style="endArrow=block;endSize=16;endFill=0;html=1;rounded=0;exitX=1;exitY=0.5;exitDx=0;exitDy=0;movable=1;resizable=1;rotatable=1;deletable=1;editable=1;locked=0;connectable=1;entryX=0;entryY=0.5;entryDx=0;entryDy=0;" parent="WIyWlLk6GJQsqaUBKTNV-1" source="Oi_0RJb_AG10MJE-mpay-181" target="-_F0cAaYSuwXFk3KjZpW-68" edge="1">
          <mxGeometry width="160" relative="1" as="geometry">
            <mxPoint x="1638" y="596" as="sourcePoint" />
            <mxPoint x="1767" y="362" as="targetPoint" />
          </mxGeometry>
        </mxCell>
        <mxCell id="Oi_0RJb_AG10MJE-mpay-188" value="" style="endArrow=open;endFill=1;endSize=12;html=1;rounded=0;entryX=1;entryY=0.5;entryDx=0;entryDy=0;exitX=0;exitY=0.5;exitDx=0;exitDy=0;" parent="WIyWlLk6GJQsqaUBKTNV-1" source="-_F0cAaYSuwXFk3KjZpW-70" target="-_F0cAaYSuwXFk3KjZpW-55" edge="1">
          <mxGeometry width="160" relative="1" as="geometry">
            <mxPoint x="1405" y="371" as="sourcePoint" />
            <mxPoint x="1459" y="371" as="targetPoint" />
          </mxGeometry>
        </mxCell>
        <mxCell id="Oi_0RJb_AG10MJE-mpay-189" value="" style="endArrow=open;endFill=1;endSize=12;html=1;rounded=0;entryX=1;entryY=0.5;entryDx=0;entryDy=0;exitX=0;exitY=0.5;exitDx=0;exitDy=0;" parent="WIyWlLk6GJQsqaUBKTNV-1" source="-_F0cAaYSuwXFk3KjZpW-70" target="Oi_0RJb_AG10MJE-mpay-181" edge="1">
          <mxGeometry width="160" relative="1" as="geometry">
            <mxPoint x="1776" y="490" as="sourcePoint" />
            <mxPoint x="1638" y="432" as="targetPoint" />
          </mxGeometry>
        </mxCell>
        <mxCell id="Oi_0RJb_AG10MJE-mpay-190" value="" style="endArrow=open;endFill=1;endSize=12;html=1;rounded=0;entryX=1;entryY=0.5;entryDx=0;entryDy=0;exitX=0;exitY=0.5;exitDx=0;exitDy=0;" parent="WIyWlLk6GJQsqaUBKTNV-1" source="-_F0cAaYSuwXFk3KjZpW-70" target="-_F0cAaYSuwXFk3KjZpW-57" edge="1">
          <mxGeometry width="160" relative="1" as="geometry">
            <mxPoint x="1786" y="500" as="sourcePoint" />
            <mxPoint x="1648" y="442" as="targetPoint" />
          </mxGeometry>
        </mxCell>
        <mxCell id="GWrt1iCBhG3KNxmkTefN-3" value="" style="endArrow=open;endFill=1;endSize=12;html=1;rounded=0;entryX=1;entryY=0.5;entryDx=0;entryDy=0;exitX=0;exitY=0.5;exitDx=0;exitDy=0;" edge="1" parent="WIyWlLk6GJQsqaUBKTNV-1" source="Oi_0RJb_AG10MJE-mpay-12" target="Oi_0RJb_AG10MJE-mpay-8">
          <mxGeometry width="160" relative="1" as="geometry">
            <mxPoint x="2196" y="124" as="sourcePoint" />
            <mxPoint x="2248" y="124" as="targetPoint" />
          </mxGeometry>
        </mxCell>
      </root>
    </mxGraphModel>
  </diagram>
</mxfile>
